<?xml version="1.0" standalone="no"?>
<!DOCTYPE svg PUBLIC "-//W3C//DTD SVG 20010904//EN"
 "http://www.w3.org/TR/2001/REC-SVG-20010904/DTD/svg10.dtd">
<svg version="1.0" xmlns="http://www.w3.org/2000/svg"
 width="700.000000pt" height="700.000000pt" viewBox="0 0 700.000000 700.000000"
 preserveAspectRatio="xMidYMid meet">
<metadata>
Created by potrace 1.14, written by Peter Selinger 2001-2017
</metadata>
<g transform="translate(0.000000,700.000000) scale(0.100000,-0.100000)"
fill="#000000" stroke="none">
<path d="M3259 6925 c-3 -2 -45 -6 -94 -9 -50 -4 -101 -8 -115 -10 -14 -3 -74
-12 -135 -21 -1348 -205 -2469 -1229 -2804 -2560 -19 -76 -24 -97 -36 -162 -8
-40 -30 -167 -40 -233 -3 -23 -8 -68 -21 -200 -7 -73 -6 -406 1 -495 8 -106
21 -221 30 -265 3 -14 7 -41 9 -60 23 -180 114 -503 211 -741 194 -476 532
-950 910 -1276 33 -28 71 -61 85 -73 53 -46 249 -188 340 -247 471 -301 993
-478 1565 -531 155 -14 583 -6 705 13 14 2 45 6 70 10 25 3 56 8 70 10 14 3
41 7 60 10 50 8 251 53 286 64 16 5 70 22 119 36 320 96 708 288 985 488 277
199 557 472 751 732 155 208 301 457 409 700 61 137 161 431 184 545 3 14 10
43 15 65 19 79 54 282 65 381 25 218 25 577 1 754 -3 19 -7 58 -10 85 -6 54
-20 135 -40 235 -23 112 -22 109 -25 113 -1 1 -3 11 -5 22 -10 62 -79 280
-138 435 -67 177 -175 387 -317 615 -140 226 -415 542 -635 732 -419 361 -929
623 -1455 747 -101 24 -203 44 -264 52 -15 2 -35 5 -45 8 -9 3 -50 8 -91 11
-41 4 -88 9 -105 12 -37 6 -491 14 -496 8z"/>
</g>
</svg>
