<?xml version="1.0" encoding="UTF-8" standalone="no"?>
<svg
   id="Carnegie_Mellon_University"
   viewBox="0 0 200.68 34"
   version="1.1"
   sodipodi:docname="cmu-nbd-wordmark-horizontal-r.svg"
   width="200.67999"
   height="34"
   xml:space="preserve"
   inkscape:version="1.2.1 (9c6d41e, 2022-07-14)"
   inkscape:export-filename="../../NBD/cmu-nbd-S2023/images/cmu-banner-inkscapepng.png"
   inkscape:export-xdpi="800.09998"
   inkscape:export-ydpi="800.09998"
   xmlns:inkscape="http://www.inkscape.org/namespaces/inkscape"
   xmlns:sodipodi="http://sodipodi.sourceforge.net/DTD/sodipodi-0.dtd"
   xmlns:xlink="http://www.w3.org/1999/xlink"
   xmlns="http://www.w3.org/2000/svg"
   xmlns:svg="http://www.w3.org/2000/svg"><sodipodi:namedview
     id="namedview2257"
     pagecolor="#ffffff"
     bordercolor="#000000"
     borderopacity="0.25"
     inkscape:showpageshadow="2"
     inkscape:pageopacity="0.0"
     inkscape:pagecheckerboard="false"
     inkscape:deskcolor="#d1d1d1"
     showgrid="false"
     inkscape:zoom="4.2193424"
     inkscape:cx="100.37109"
     inkscape:cy="20.026817"
     inkscape:window-width="1440"
     inkscape:window-height="831"
     inkscape:window-x="0"
     inkscape:window-y="25"
     inkscape:window-maximized="0"
     inkscape:current-layer="Carnegie_Mellon_University" /><defs
     id="defs2202"><color-profile
       name="_43S425CA"
       xlink:href="file:///Library/ColorSync/Profiles/Displays/43S425CA-D38273AF-E01B-DC11-0857-D6964E3302DB.icc"
       id="color-profile2106" /><color-profile
       name="Black---White"
       xlink:href="file:///Library/ColorSync/Profiles/Black%20&amp;%20White.icc"
       id="color-profile2108" /><rect
       x="29.871523"
       y="6.5507722"
       width="58.607574"
       height="26.552464"
       id="rect15012" /><rect
       x="31.705738"
       y="5.9393668"
       width="53.279613"
       height="26.727152"
       id="rect14956" /><style
       id="style2200">.cls-1{fill:#c41230;}</style></defs><rect
     style="fill:#ffffff;fill-opacity:1;stroke-width:0.937996"
     id="rect1857"
     width="205.32237"
     height="37.920597"
     x="-2.1330338"
     y="-1.8960305" /><polygon
     class="cls-1"
     points="42.43,3.72 42.43,9.05 43.32,9.05 43.32,9.4 39.76,9.4 39.76,9.05 40.65,9.05 40.65,4.09 39.96,4.09 39.96,3.72 "
     id="polygon2204"
     transform="matrix(0.76555023,0,0,0.76555023,35.997312,22.955874)" /><path
     class="cls-1"
     d="m 41.616451,23.162572 h -0.244976 c -0.0077,0.206699 -0.122488,0.298565 -0.329187,0.298565 -0.421053,0 -1.033493,-0.512919 -1.75311,-0.512919 -2.051675,0.0077 -3.291866,2.028708 -3.291866,3.804785 0,1.776077 1.178947,3.559809 3.161722,3.559809 1.201914,0 1.645933,-0.566508 1.967464,-0.566508 0.206699,0 0.244977,0.183732 0.244977,0.413397 h 0.267942 v -2.44976 h -0.267942 l -0.06124,0.336842 c -0.1378,0.811483 -0.765551,2.005741 -2.059331,2.005741 -1.140669,0 -1.577033,-0.987559 -1.577033,-3.414354 0,-2.549282 0.604785,-3.406698 1.615311,-3.406698 1.14067,0 1.921531,1.278469 2.082297,2.296651 h 0.244976 z"
     id="path2206"
     style="stroke-width:0.76555" /><path
     class="cls-1"
     d="m 45.122671,28.980754 c -0.02297,0.520574 -0.313876,0.949282 -0.780862,0.949282 -0.673684,0 -0.69665,-0.566507 -0.69665,-0.995215 0,-0.520574 0.06124,-0.865072 0.69665,-0.933971 l 0.780862,-0.07655 v 1.064115 z m 1.799043,0.329187 c 0,0.252631 -0.168421,0.551196 -0.283254,0.551196 -0.176076,0 -0.214354,-0.183732 -0.214354,-0.489952 v -2.266029 c 0,-1.125359 -1.056459,-1.400957 -2.066986,-1.400957 -1.010526,0 -1.707177,0.482297 -1.707177,1.033493 0,0.344498 0.199043,0.643062 0.643063,0.643062 0.375119,0 0.604784,-0.244976 0.604784,-0.589474 0,-0.505263 -0.520574,-0.505263 -0.520574,-0.520574 0,-0.222009 0.581818,-0.298564 0.91866,-0.298564 0.742584,0 0.83445,0.275598 0.83445,0.865071 v 0.826795 l -0.964593,0.07656 c -0.895694,0.0689 -1.875598,0.30622 -1.875598,1.332057 0,0.857416 0.76555,1.201914 1.5311,1.201914 0.382775,0 1.064115,-0.145455 1.324402,-0.620096 0.176077,0.413397 0.543541,0.620096 0.98756,0.620096 0.643062,0 1.056459,-0.382775 1.056459,-0.964593 h -0.252631 z"
     id="path2208"
     style="stroke-width:0.76555" /><polygon
     class="cls-1"
     points="134.03,3.7 134.03,9.03 134.92,9.03 134.92,9.38 131.36,9.38 131.36,9.03 132.25,9.03 132.25,4.07 131.36,4.07 131.36,3.7 "
     id="polygon2210"
     transform="matrix(0.76555023,0,0,0.76555023,35.997312,22.955874)" /><path
     class="cls-1"
     d="m 79.495875,27.893673 1.630622,-4.677512 h 2.250718 v 0.275598 h -0.650718 v 6.392344 h 0.643062 v 0.275598 h -2.710047 v -0.275598 h 0.658373 v -6.315789 h -0.02297 l -2.29665,6.583732 h -0.267943 l -2.342584,-6.70622 h -0.02297 v 5.596172 c 0,0.796172 0.206698,0.842105 0.742583,0.842105 h 0.03062 v 0.275598 h -1.707176 v -0.275598 0 c 0.566507,0 0.666028,-0.329186 0.666028,-0.750239 v -5.634449 h -0.666028 v -0.283254 h 2.472727 z"
     id="path2212"
     style="stroke-width:0.76555" /><path
     class="cls-1"
     d="m 84.954248,27.503242 v -0.666029 c 0,-0.658373 0.283254,-0.865071 0.620096,-0.865071 0.474641,0 0.620096,0.321531 0.620096,0.865071 v 0.666029 z m 0,0.267943 h 2.717704 c -0.0077,-1.064115 -0.995216,-2.089952 -2.028708,-2.066986 -1.163637,0 -2.166508,1.002871 -2.166508,2.334928 0,1.332058 0.933972,2.235407 2.19713,2.235407 1.263157,0 1.814354,-0.750239 2.028708,-1.722488 h -0.267943 c -0.214354,0.91866 -0.696651,1.439234 -1.469856,1.439234 -0.918661,0 -1.018182,-0.719617 -1.018182,-1.385645 V 27.77884 Z"
     id="path2214"
     style="stroke-width:0.76555" /><path
     class="cls-1"
     d="m 125.91119,27.487931 v -0.666029 c 0,-0.658373 0.28325,-0.865071 0.62009,-0.865071 0.47464,0 0.6201,0.321531 0.6201,0.865071 v 0.666029 z m 0,0.267943 h 2.7177 c -0.008,-1.064115 -0.99522,-2.089952 -2.02871,-2.066986 -1.16364,0 -2.16651,1.002871 -2.16651,2.334928 0,1.332058 0.93397,2.235407 2.19713,2.235407 1.26316,0 1.81436,-0.750239 2.02871,-1.722488 h -0.26794 c -0.21436,0.91866 -0.69665,1.439234 -1.46986,1.439234 -0.91866,0 -1.01818,-0.719617 -1.01818,-1.385645 v -0.826795 z"
     id="path2216"
     style="stroke-width:0.76555" /><polygon
     class="cls-1"
     points="67.52,0.36 67.52,0.68 68.41,0.68 68.41,9.04 67.52,9.04 67.52,9.4 71.08,9.4 71.08,9.04 70.19,9.04 70.19,0.36 "
     id="polygon2218"
     transform="matrix(0.76555023,0,0,0.76555023,35.997312,22.955874)" /><polygon
     class="cls-1"
     points="71.33,0.36 71.33,0.68 72.22,0.68 72.22,9.04 71.33,9.04 71.33,9.4 74.88,9.4 74.88,9.04 73.99,9.04 73.99,0.36 "
     id="polygon2220"
     transform="matrix(0.76555023,0,0,0.76555023,35.997312,22.955874)" /><path
     class="cls-1"
     d="m 96.452813,28.957788 c 0,0.742583 -0.30622,1.048803 -0.811483,1.048803 -0.505264,0 -0.811484,-0.30622 -0.811484,-1.048803 v -1.936842 c 0,-0.742584 0.30622,-1.048804 0.811484,-1.048804 0.505263,0 0.811483,0.30622 0.811483,1.048804 z m 1.538756,-0.972249 c 0,-1.347369 -1.041149,-2.288995 -2.342584,-2.288995 -1.301435,0 -2.342584,0.933971 -2.342584,2.288995 0,1.355024 1.048804,2.288995 2.342584,2.288995 1.29378,0 2.342584,-0.933971 2.342584,-2.288995"
     id="path2222"
     style="stroke-width:0.76555" /><path
     class="cls-1"
     d="m 105.06525,23.453481 h 0.689 v 4.378948 c 0,1.5311 1.05646,2.457416 2.66411,2.457416 1.81436,0 2.60287,-0.956938 2.60287,-2.403828 v -3.74354 c 0,-0.574163 0.16077,-0.68134 0.51292,-0.68134 h 0.19905 v -0.267943 h -1.73015 v 0.260287 h 0.12249 c 0.50526,0 0.57416,0.153111 0.57416,0.727273 v 3.804785 c 0,1.339713 -0.83445,1.952153 -1.67655,1.952153 -1.43924,0 -1.72249,-0.964593 -1.81436,-2.227751 v -4.25646 h 0.64307 v -0.260287 h -2.78661 z"
     id="path2224"
     style="stroke-width:0.76555" /><path
     class="cls-1"
     d="m 122.14468,30.251568 h 0.26794 l 1.4622,-3.452632 c 0.29857,-0.643062 0.45168,-0.727273 0.68134,-0.734928 h 0.0919 v -0.267943 h -1.53876 v 0.275598 h 0.18373 c 0.28326,0 0.4134,-0.01531 0.4134,0.237321 0,0.160765 -0.0536,0.313875 -0.16842,0.597129 l -0.67368,1.577033 -1.07177,-2.411483 h 0.54354 v -0.275598 h -2.47273 v 0.275598 h 0.46698 z"
     id="path2226"
     style="stroke-width:0.76555" /><path
     class="cls-1"
     d="m 133.13032,30.251568 h 0.23732 c 0.0459,-0.160766 0.15311,-0.237321 0.3445,-0.237321 0.25263,0 0.55885,0.237321 1.11771,0.237321 0.93397,0 1.57703,-0.811484 1.57703,-1.615311 0,-1.201914 -0.8268,-1.29378 -1.88325,-1.439235 -0.5512,-0.07655 -0.86508,-0.160765 -0.86508,-0.589474 0,-0.466985 0.40575,-0.658373 0.93398,-0.658373 0.74258,0 1.02583,0.489952 1.27081,1.133015 h 0.22966 v -1.400957 h -0.22201 c 0,0.114832 -0.0995,0.214354 -0.29091,0.214354 -0.31387,0 -0.57416,-0.214354 -1.02583,-0.214354 -0.98756,0 -1.46986,0.834449 -1.46986,1.469856 0,1.270813 0.96459,1.377991 1.71483,1.469857 0.71197,0.09187 0.9646,0.137799 0.9646,0.589473 0,0.520574 -0.43637,0.757895 -0.9646,0.757895 -0.75024,0 -1.26315,-0.650718 -1.43923,-1.370335 h -0.23732 v 1.653589 z"
     id="path2228"
     style="stroke-width:0.76555" /><polygon
     class="cls-1"
     points="109.08,3.7 109.08,9.03 109.97,9.03 109.97,9.38 106.42,9.38 106.42,9.03 107.31,9.03 107.31,4.07 106.42,4.07 106.42,3.7 "
     id="polygon2230"
     transform="matrix(0.76555023,0,0,0.76555023,35.997312,22.955874)" /><path
     class="cls-1"
     d="m 118.14851,24.42573 c 0,0.37512 0.29856,0.68134 0.68134,0.68134 0.38277,0 0.68134,-0.298565 0.68134,-0.68134 0,-0.382775 -0.29857,-0.681339 -0.68134,-0.681339 -0.38278,0 -0.68134,0.298564 -0.68134,0.681339"
     id="path2232"
     style="stroke-width:0.76555" /><path
     class="cls-1"
     d="m 137.24133,24.42573 c 0,0.37512 0.29856,0.68134 0.68134,0.68134 0.38277,0 0.68134,-0.298565 0.68134,-0.68134 0,-0.382775 -0.29857,-0.681339 -0.68134,-0.681339 -0.38278,0 -0.68134,0.298564 -0.68134,0.681339"
     id="path2234"
     style="stroke-width:0.76555" /><path
     class="cls-1"
     d="m 58.780087,27.495587 v -0.666029 c 0,-0.658373 0.283253,-0.865072 0.620095,-0.865072 0.474642,0 0.620096,0.321531 0.620096,0.865072 v 0.666029 z m 0,0.267942 h 2.717703 c -0.0077,-1.064115 -0.995215,-2.089952 -2.028708,-2.066985 -1.163636,0 -2.166507,1.00287 -2.166507,2.334928 0,1.332057 0.933971,2.235407 2.197129,2.235407 1.263158,0 1.814354,-0.75024 2.028708,-1.722488 h -0.267943 c -0.214354,0.91866 -0.69665,1.439234 -1.469856,1.439234 -0.91866,0 -1.018182,-0.719617 -1.018182,-1.385646 v -0.826794 z"
     id="path2236"
     style="stroke-width:0.76555" /><path
     class="cls-1"
     d="m 70.684393,27.495587 v -0.666029 c 0,-0.658373 0.283253,-0.865072 0.620095,-0.865072 0.352154,0 0.620096,0.206699 0.620096,0.865072 v 0.666029 z m 0,0.267942 h 2.717703 c -0.0077,-1.064115 -0.995215,-2.089952 -2.028708,-2.066985 -1.163636,0 -2.166507,1.00287 -2.166507,2.334928 0,1.332057 0.933971,2.235407 2.197129,2.235407 1.263158,0 1.814354,-0.75024 2.028708,-1.722488 h -0.267942 c -0.214355,0.91866 -0.696651,1.439234 -1.469857,1.439234 -0.91866,0 -1.018182,-0.719617 -1.018182,-1.385646 v -0.826794 z"
     id="path2238"
     style="stroke-width:0.76555" /><path
     class="cls-1"
     d="m 116.59444,29.868792 v -2.664114 c 0,-1.064115 -0.45168,-1.561723 -1.3933,-1.561723 -0.65838,0 -1.33206,0.382775 -1.6,0.949282 v 0 -0.796172 h -2.04402 v 0.267943 h 0.68134 v 3.804784 h -0.68134 v 0.267943 h 2.62584 v -0.267943 h -0.58182 v -2.60287 c 0.0842,-0.367464 0.55119,-1.20957 1.08708,-1.20957 0.35981,0 0.53588,0.122488 0.53588,0.788517 v 3.023923 h -0.55885 v 0.267943 h 2.60287 v -0.267943 h -0.68134 z"
     id="path2240"
     style="stroke-width:0.76555" /><path
     class="cls-1"
     d="m 100.02793,25.819032 v 0.796172 0 c 0.26794,-0.574163 0.93397,-0.949282 1.6,-0.949282 0.93397,0 1.3933,0.497607 1.3933,1.561722 v 2.664115 h 0.68134 v 0.267942 h -2.60287 v -0.267942 h 0.55885 v -3.023923 c 0,-0.658374 -0.18373,-0.788517 -0.53588,-0.788517 -0.53589,0 -1.00287,0.842105 -1.08708,1.209569 v 2.602871 c 0,0 0.58182,0 0.58182,0 v 0.267942 h -2.625841 v -0.267942 h 0.681339 v -3.81244 h -0.681339 v -0.267943 h 2.044021 z"
     id="path2242"
     style="stroke-width:0.76555" /><path
     class="cls-1"
     d="m 56.61358,29.884103 v -2.664114 c 0,-1.064115 -0.451675,-1.561723 -1.393302,-1.561723 -0.658373,0 -1.332057,0.382775 -1.6,0.949282 v 0 -0.796172 h -2.044019 v 0.267943 h 0.68134 v 3.804784 h -0.68134 v 0.267943 h 2.625837 v -0.267943 h -0.581818 v -2.60287 c 0.08421,-0.367464 0.551196,-1.20957 1.087082,-1.20957 0.359808,0 0.535885,0.122488 0.535885,0.788517 v 3.023923 h -0.558852 v 0.267943 h 2.602871 v -0.267943 h -0.68134 z"
     id="path2244"
     style="stroke-width:0.76555" /><path
     class="cls-1"
     d="m 67.124584,24.456352 c 0,0.37512 0.298565,0.68134 0.68134,0.68134 0.382775,0 0.68134,-0.298565 0.68134,-0.68134 0,-0.382775 -0.298565,-0.681339 -0.68134,-0.681339 -0.382775,0 -0.68134,0.298564 -0.68134,0.681339"
     id="path2246"
     style="stroke-width:0.76555" /><path
     class="cls-1"
     d="m 145.21836,25.78841 v 0.283253 c 0.42105,0 0.60479,0.03828 0.60479,0.229665 0,0.160766 -0.0536,0.313876 -0.16842,0.59713 l -0.67369,1.577033 -1.07177,-2.403828 h 0.55885 V 25.78841 h -3.39904 V 23.675491 H 140.893 c 0,1.041148 -0.71196,2.120574 -1.70717,2.120574 v 0.283254 h 0.52057 v 3.04689 c 0,0.933971 0.81148,1.125359 1.08708,1.125359 0.60479,0 1.00287,-0.244977 1.30909,-0.757895 l -0.21435,-0.114833 c -0.11483,0.176077 -0.2756,0.413397 -0.52058,0.413397 -0.19904,0 -0.29856,-0.137799 -0.29856,-0.466985 v -3.253589 h 1.37799 l 1.79904,4.156938 -0.62009,1.469856 v 0 c 0,0 0,0 0,0 v 0 c 0,0 -0.0383,0.04593 -0.0766,0.04593 -0.0383,0 -0.0612,-0.02297 -0.0765,-0.05359 0,0 0,0 0,0 -0.0766,-0.283254 -0.33684,-0.489952 -0.65072,-0.489952 -0.37512,0 -0.68134,0.298564 -0.68134,0.68134 0,0.267942 0.15311,0.489952 0.36746,0.604784 0,0 0,0 0,0 0,0 0.0153,0 0.023,0.0077 0.0153,0 0.023,0.01531 0.0383,0.01531 0.0765,0.03062 0.16076,0.05359 0.24497,0.05359 0.57417,0.04593 0.86508,-0.375119 1.06412,-0.803828 0.0459,-0.09952 0.0842,-0.199043 0.12249,-0.290909 0.0842,-0.206698 0.23732,-0.566507 0.41339,-0.987559 v 0 c 0,0 0.16843,-0.398087 0.16843,-0.398087 v 0 c 0,0 1.38564,-3.276555 1.38564,-3.276555 0.29857,-0.643062 0.4134,-0.727272 0.76555,-0.727272 v 0 -0.283254 h -1.53875 z"
     id="path2248"
     style="stroke-width:0.76555" /><path
     class="cls-1"
     d="m 50.588699,25.650611 c -0.627751,0 -1.117703,0.436363 -1.301435,0.926315 h -0.02297 v -0.750239 h -2.021052 v 0.275598 h 0.68134 v 3.789474 h -0.68134 v 0.267942 h 2.947368 v -0.267942 h -0.903349 v -2.120574 c 0,-0.635407 0.168421,-1.286125 0.581818,-1.638278 0.02297,-0.01531 0.05359,-0.02297 0.08421,-0.0077 0.03062,0.01531 0.04593,0.05359 0.04593,0.08421 v 0 c -0.03062,0.07656 -0.04593,0.168421 -0.05359,0.283254 -0.01531,0.359809 0.283254,0.643062 0.673684,0.643062 0.474641,0 0.75024,-0.344498 0.75024,-0.719617 0,-0.474641 -0.313876,-0.757895 -0.780862,-0.757895 z"
     id="path2250"
     style="stroke-width:0.76555" /><path
     class="cls-1"
     d="m 65.432718,25.972142 c 0,0 0.04593,-0.01531 0.06124,0 0.01531,0.01531 0.01531,0.03062 0,0.05359 v 0 c -0.06124,0.09952 -0.08421,0.229665 -0.03828,0.359809 0.04593,0.130143 0.160765,0.23732 0.298564,0.267942 0.283254,0.06124 0.52823,-0.145454 0.52823,-0.413397 0,-0.176076 -0.107177,-0.30622 -0.229665,-0.382775 -0.122488,-0.07655 -0.275598,-0.114832 -0.436364,-0.114832 -0.260287,0 -0.528229,0.137799 -0.727272,0.30622 0,0 0,0 0,0 -0.04593,-0.03062 -0.09187,-0.06124 -0.137799,-0.09187 -0.267943,-0.160766 -0.627752,-0.260287 -1.094737,-0.260287 -0.826795,0 -1.714833,0.54354 -1.714833,1.439234 0,0.543541 0.298565,0.964593 0.819139,1.201914 v 0.02297 c -0.382775,0.04593 -0.98756,0.313876 -0.98756,1.133015 0,0.489952 0.229665,0.865072 0.643062,0.98756 v 0.02297 c -0.398086,0.107177 -0.84976,0.505263 -0.84976,0.979904 0,0.727273 0.857416,1.29378 1.952153,1.29378 1.370335,0 2.266028,-0.926316 2.266028,-2.128229 0,-0.956938 -0.474641,-1.393302 -1.439234,-1.370335 h -1.638278 c -0.244976,0 -0.413397,-0.0077 -0.413397,-0.275598 0,-0.244976 0.37512,-0.512919 0.75024,-0.512919 0.0689,0 0.176076,0.05359 0.199043,0.06124 0.122488,0.03828 0.244976,0.06124 0.405741,0.06124 0.849761,0 1.75311,-0.482297 1.75311,-1.416268 0,-0.290909 -0.122488,-0.688995 -0.359808,-0.933971 -0.01531,-0.01531 -0.01531,-0.03828 0,-0.05359 0.09187,-0.07655 0.206698,-0.137799 0.260287,-0.168421 0.04593,-0.02297 0.07655,-0.03828 0.114832,-0.05359 v 0 z m -1.309091,4.532057 c 0.98756,0 1.247847,0.03828 1.247847,0.643062 0,0.719618 -0.880383,1.377991 -1.875598,1.377991 -0.888038,0 -1.316746,-0.543541 -1.332057,-1.018182 0,-0.436364 0.214354,-0.719617 0.482296,-1.002871 z m 0.168421,-3.368421 c 0,1.148325 -0.267942,1.186603 -0.620095,1.186603 -0.398086,0 -0.604785,-0.07655 -0.604785,-1.217225 0,-0.796172 0.09187,-1.14067 0.604785,-1.14067 0.466985,0 0.61244,0.03062 0.620095,1.163637 v 0 z"
     id="path2252"
     style="stroke-width:0.76555" /><path
     class="cls-1"
     d="m 132.08152,25.612333 c -0.62775,0 -1.1177,0.436364 -1.30143,0.926316 h -0.023 V 25.78841 h -2.02105 v 0.275598 h 0.68134 v 3.789473 h -0.68134 v 0.267943 h 2.94736 v -0.267943 h -0.90334 v -2.120574 c 0,-0.635406 0.16842,-1.278469 0.58181,-1.638277 0.023,-0.01531 0.0536,-0.02297 0.0842,-0.0077 0.0306,0.01531 0.0459,0.05359 0.0459,0.08421 v 0 c -0.023,0.07655 -0.0459,0.168421 -0.0536,0.283253 -0.0153,0.359809 0.28325,0.643063 0.67368,0.643063 0.47464,0 0.75024,-0.344498 0.75024,-0.719618 0,-0.474641 -0.31387,-0.757894 -0.78086,-0.757894 z"
     id="path2254"
     style="stroke-width:0.76555" /><g
     id="g14900"
     transform="matrix(0.76555023,0,0,0.76555023,-0.14009292,5.1637545)"><path
       sodipodi:type="star"
       style="fill:#c00000;fill-opacity:1"
       id="path13560"
       inkscape:flatsided="true"
       sodipodi:sides="3"
       sodipodi:cx="35.986362"
       sodipodi:cy="-3.9946251"
       sodipodi:r1="2.9178131"
       sodipodi:r2="1.4589067"
       sodipodi:arg1="1.5707963"
       sodipodi:arg2="2.6179939"
       inkscape:rounded="0"
       inkscape:randomized="0"
       d="m 35.986363,-1.076812 -2.526901,-4.3767196 5.053801,-1e-7 z"
       inkscape:transform-center-y="-1.1810197"
       transform="matrix(1.79042,0,0,-1.6190476,-37.701451,-0.49291857)"
       inkscape:transform-center-x="1.5662471e-06" /><path
       sodipodi:type="star"
       style="fill:#ed7d31;fill-opacity:1"
       id="path13590"
       inkscape:flatsided="true"
       sodipodi:sides="3"
       sodipodi:cx="11.18495"
       sodipodi:cy="-4.4461913"
       sodipodi:r1="4.867486"
       sodipodi:r2="2.433743"
       sodipodi:arg1="0.042830933"
       sodipodi:arg2="1.0900285"
       inkscape:rounded="0"
       inkscape:randomized="0"
       d="M 16.047972,-4.2377761 8.572946,-0.33889833 8.9339318,-8.7618995 Z"
       inkscape:transform-center-x="-1.2667229"
       inkscape:transform-center-y="-0.11715813"
       transform="matrix(1.1254669,0,0,1.1242774,1.7727202,5.4308902)" /><path
       sodipodi:type="star"
       style="fill:#ffc000;fill-opacity:1"
       id="path13594"
       inkscape:flatsided="true"
       sodipodi:sides="3"
       sodipodi:cx="16.306505"
       sodipodi:cy="13.677081"
       sodipodi:r1="2.0229681"
       sodipodi:r2="1.011484"
       sodipodi:arg1="1.7840008"
       sodipodi:arg2="2.8311984"
       inkscape:rounded="0"
       inkscape:randomized="0"
       d="m 15.87846,15.654245 -1.070206,-3.336444 3.424548,0.741397 z"
       inkscape:transform-center-x="-0.47315066"
       inkscape:transform-center-y="0.68299272"
       transform="matrix(2.2107499,0,0,2.2107499,-23.697519,-15.301056)" /><rect
       style="fill:#c00000;fill-opacity:1;stroke-width:1.12964"
       id="rect14254"
       width="3.6423173"
       height="21.597403"
       x="24.967916"
       y="6.4324369"
       ry="1.8404372" /><rect
       style="fill:#ed7d31;fill-opacity:1;stroke-width:1.46101"
       id="rect14254-9"
       width="4.1040211"
       height="32.062649"
       x="10.587157"
       y="6.9313712"
       ry="2.2942863"
       transform="matrix(0.90791783,-0.41914821,0.4194638,0.90777206,0,0)" /><rect
       style="fill:#ffc000;fill-opacity:1;stroke-width:1.13391"
       id="rect14559"
       width="3.591017"
       height="21.905205"
       x="-4.2314782"
       y="18.85951"
       ry="1.8699564"
       transform="rotate(-47.472218)" /><ellipse
       style="fill:#ffffff;fill-opacity:1;stroke-width:0.883883"
       id="path14891"
       cx="27.10289"
       cy="28.194729"
       rx="1.256856"
       ry="1.2825061" /></g><text
     xml:space="preserve"
     style="font-style:normal;font-variant:normal;font-weight:bold;font-stretch:normal;font-size:6.63477px;font-family:Arial;-inkscape-font-specification:'Arial, Bold';font-variant-ligatures:normal;font-variant-caps:normal;font-variant-numeric:normal;font-variant-east-asian:normal;fill:#040404;stroke-width:0.76555"
     x="22.410851"
     y="17.116983"
     id="text1367"><tspan
       sodipodi:role="line"
       id="tspan1365"
       x="22.410851"
       y="17.116983"
       style="stroke-width:0.76555">National</tspan></text><text
     xml:space="preserve"
     style="font-style:normal;font-variant:normal;font-weight:bold;font-stretch:normal;font-size:6.63477px;font-family:Arial;-inkscape-font-specification:'Arial, Bold';font-variant-ligatures:normal;font-variant-caps:normal;font-variant-numeric:normal;font-variant-east-asian:normal;fill:#040404;stroke-width:0.76555"
     x="22.215"
     y="22.550793"
     id="text1367-9"><tspan
       sodipodi:role="line"
       id="tspan1365-7"
       x="22.215"
       y="22.550793"
       style="stroke-width:0.76555">Biomechanics</tspan></text><text
     xml:space="preserve"
     style="font-style:normal;font-variant:normal;font-weight:bold;font-stretch:normal;font-size:6.63477px;font-family:Arial;-inkscape-font-specification:'Arial, Bold';font-variant-ligatures:normal;font-variant-caps:normal;font-variant-numeric:normal;font-variant-east-asian:normal;fill:#040404;stroke-width:0.76555"
     x="22.210146"
     y="27.886299"
     id="text1367-9-9"><tspan
       sodipodi:role="line"
       id="tspan1365-7-9"
       x="22.210146"
       y="27.886299"
       style="stroke-width:0.76555">Day</tspan><tspan
       sodipodi:role="line"
       x="22.210146"
       y="36.17976"
       id="tspan1527"
       style="stroke-width:0.76555" /></text></svg>
