<?xml version="1.0" encoding="UTF-8" standalone="no"?>
<svg
   id="Carnegie_Mellon_University"
   viewBox="0 0 200.68 44"
   version="1.1"
   sodipodi:docname="cmu-nbd-wordmark-horizontal-r.svg"
   width="200.67999"
   height="44"
   xml:space="preserve"
   inkscape:version="1.2.1 (9c6d41e, 2022-07-14)"
   inkscape:export-filename="../../NBD/cmu-nbd-S2023/images/cmu-banner-inkscapepng.png"
   inkscape:export-xdpi="800.09998"
   inkscape:export-ydpi="800.09998"
   xmlns:inkscape="http://www.inkscape.org/namespaces/inkscape"
   xmlns:sodipodi="http://sodipodi.sourceforge.net/DTD/sodipodi-0.dtd"
   xmlns:xlink="http://www.w3.org/1999/xlink"
   xmlns="http://www.w3.org/2000/svg"
   xmlns:svg="http://www.w3.org/2000/svg"><sodipodi:namedview
     id="namedview2257"
     pagecolor="#ffffff"
     bordercolor="#000000"
     borderopacity="0.25"
     inkscape:showpageshadow="2"
     inkscape:pageopacity="0.0"
     inkscape:pagecheckerboard="false"
     inkscape:deskcolor="#d1d1d1"
     showgrid="false"
     inkscape:zoom="4.2193424"
     inkscape:cx="100.13409"
     inkscape:cy="20.026817"
     inkscape:window-width="1440"
     inkscape:window-height="831"
     inkscape:window-x="0"
     inkscape:window-y="25"
     inkscape:window-maximized="0"
     inkscape:current-layer="Carnegie_Mellon_University" /><defs
     id="defs2202"><color-profile
       name="_43S425CA"
       xlink:href="file:///Library/ColorSync/Profiles/Displays/43S425CA-D38273AF-E01B-DC11-0857-D6964E3302DB.icc"
       id="color-profile16765" /><color-profile
       name="Black---White"
       xlink:href="file:///Library/ColorSync/Profiles/Black%20&amp;%20White.icc"
       id="color-profile16767" /><rect
       x="29.871523"
       y="6.5507722"
       width="58.607574"
       height="26.552464"
       id="rect15012" /><rect
       x="31.705738"
       y="5.9393668"
       width="53.279613"
       height="26.727152"
       id="rect14956" /><style
       id="style2200">.cls-1{fill:#c41230;}</style></defs><rect
     style="fill:#ffffff;fill-opacity:1;stroke-width:1.07617"
     id="rect1857"
     width="206.9043"
     height="49.533783"
     x="-2.1330338"
     y="-1.8960305" /><polygon
     class="cls-1"
     points="39.96,3.72 42.43,3.72 42.43,9.05 43.32,9.05 43.32,9.4 39.76,9.4 39.76,9.05 40.65,9.05 40.65,4.09 39.96,4.09 "
     id="polygon2204"
     transform="translate(47.674731,30.56677)" /><path
     class="cls-1"
     d="m 55.014731,30.83677 h -0.32 c -0.01,0.27 -0.16,0.39 -0.43,0.39 -0.55,0 -1.35,-0.67 -2.29,-0.67 -2.68,0.01 -4.3,2.65 -4.3,4.97 0,2.32 1.54,4.65 4.13,4.65 1.57,0 2.15,-0.74 2.57,-0.74 0.27,0 0.32,0.24 0.32,0.54 h 0.35 v -3.2 h -0.35 l -0.08,0.44 c -0.18,1.06 -1,2.62 -2.69,2.62 -1.49,0 -2.06,-1.29 -2.06,-4.46 0,-3.33 0.79,-4.45 2.11,-4.45 1.49,0 2.51,1.67 2.72,3 h 0.32 z"
     id="path2206" /><path
     class="cls-1"
     d="m 59.594731,38.43677 c -0.03,0.68 -0.41,1.24 -1.02,1.24 -0.88,0 -0.91,-0.74 -0.91,-1.3 0,-0.68 0.08,-1.13 0.91,-1.22 l 1.02,-0.1 v 1.39 z m 2.35,0.43 c 0,0.33 -0.22,0.72 -0.37,0.72 -0.23,0 -0.28,-0.24 -0.28,-0.64 v -2.96 c 0,-1.47 -1.38,-1.83 -2.7,-1.83 -1.32,0 -2.23,0.63 -2.23,1.35 0,0.45 0.26,0.84 0.84,0.84 0.49,0 0.79,-0.32 0.79,-0.77 0,-0.66 -0.68,-0.66 -0.68,-0.68 0,-0.29 0.76,-0.39 1.2,-0.39 0.97,0 1.09,0.36 1.09,1.13 v 1.08 l -1.26,0.1 c -1.17,0.09 -2.45,0.4 -2.45,1.74 0,1.12 1,1.57 2,1.57 0.5,0 1.39,-0.19 1.73,-0.81 0.23,0.54 0.71,0.81 1.29,0.81 0.84,0 1.38,-0.5 1.38,-1.26 h -0.33 z"
     id="path2208" /><polygon
     class="cls-1"
     points="131.36,3.7 134.03,3.7 134.03,9.03 134.92,9.03 134.92,9.38 131.36,9.38 131.36,9.03 132.25,9.03 132.25,4.07 131.36,4.07 "
     id="polygon2210"
     transform="translate(47.674731,30.56677)" /><path
     class="cls-1"
     d="m 104.49473,37.01677 2.13,-6.11 h 2.94 v 0.36 h -0.85 v 8.35 h 0.84 v 0.36 h -3.54 v -0.36 h 0.86 v -8.25 h -0.03 l -3,8.6 h -0.35 l -3.06,-8.76 h -0.03 v 7.31 c 0,1.04 0.27,1.1 0.97,1.1 h 0.04 v 0.36 h -2.229999 v -0.36 0 c 0.74,0 0.869999,-0.43 0.869999,-0.98 v -7.36 h -0.869999 v -0.37 h 3.229999 z"
     id="path2212" /><path
     class="cls-1"
     d="m 111.62473,36.50677 v -0.87 c 0,-0.86 0.37,-1.13 0.81,-1.13 0.62,0 0.81,0.42 0.81,1.13 v 0.87 z m 0,0.35 h 3.55 c -0.01,-1.39 -1.3,-2.73 -2.65,-2.7 -1.52,0 -2.83,1.31 -2.83,3.05 0,1.74 1.22,2.92 2.87,2.92 1.65,0 2.37,-0.98 2.65,-2.25 h -0.35 c -0.28,1.2 -0.91,1.88 -1.92,1.88 -1.2,0 -1.33,-0.94 -1.33,-1.81 v -1.08 z"
     id="path2214" /><path
     class="cls-1"
     d="m 165.12473,36.48677 v -0.87 c 0,-0.86 0.37,-1.13 0.81,-1.13 0.62,0 0.81,0.42 0.81,1.13 v 0.87 z m 0,0.35 h 3.55 c -0.01,-1.39 -1.3,-2.73 -2.65,-2.7 -1.52,0 -2.83,1.31 -2.83,3.05 0,1.74 1.22,2.92 2.87,2.92 1.65,0 2.37,-0.98 2.65,-2.25 h -0.35 c -0.28,1.2 -0.91,1.88 -1.92,1.88 -1.2,0 -1.33,-0.94 -1.33,-1.81 v -1.08 z"
     id="path2216" /><polygon
     class="cls-1"
     points="70.19,0.36 67.52,0.36 67.52,0.68 68.41,0.68 68.41,9.04 67.52,9.04 67.52,9.4 71.08,9.4 71.08,9.04 70.19,9.04 "
     id="polygon2218"
     transform="translate(47.674731,30.56677)" /><polygon
     class="cls-1"
     points="73.99,0.36 71.33,0.36 71.33,0.68 72.22,0.68 72.22,9.04 71.33,9.04 71.33,9.4 74.88,9.4 74.88,9.04 73.99,9.04 "
     id="polygon2220"
     transform="translate(47.674731,30.56677)" /><path
     class="cls-1"
     d="m 126.64473,38.40677 c 0,0.97 -0.4,1.37 -1.06,1.37 -0.66,0 -1.06,-0.4 -1.06,-1.37 v -2.53 c 0,-0.97 0.4,-1.37 1.06,-1.37 0.66,0 1.06,0.4 1.06,1.37 z m 2.01,-1.27 c 0,-1.76 -1.36,-2.99 -3.06,-2.99 -1.7,0 -3.06,1.22 -3.06,2.99 0,1.77 1.37,2.99 3.06,2.99 1.69,0 3.06,-1.22 3.06,-2.99"
     id="path2222" /><path
     class="cls-1"
     d="m 137.89473,31.21677 h 0.9 v 5.72 c 0,2 1.38,3.21 3.48,3.21 2.37,0 3.4,-1.25 3.4,-3.14 v -4.89 c 0,-0.75 0.21,-0.89 0.67,-0.89 h 0.26 v -0.35 h -2.26 v 0.34 h 0.16 c 0.66,0 0.75,0.2 0.75,0.95 v 4.97 c 0,1.75 -1.09,2.55 -2.19,2.55 -1.88,0 -2.25,-1.26 -2.37,-2.91 v -5.56 h 0.84 v -0.34 h -3.64 z"
     id="path2224" /><path
     class="cls-1"
     d="m 160.20473,40.09677 h 0.35 l 1.91,-4.51 c 0.39,-0.84 0.59,-0.95 0.89,-0.96 h 0.12 v -0.35 h -2.01 v 0.36 h 0.24 c 0.37,0 0.54,-0.02 0.54,0.31 0,0.21 -0.07,0.41 -0.22,0.78 l -0.88,2.06 -1.4,-3.15 h 0.71 v -0.36 h -3.23 v 0.36 h 0.61 z"
     id="path2226" /><path
     class="cls-1"
     d="m 174.55473,40.09677 h 0.31 c 0.06,-0.21 0.2,-0.31 0.45,-0.31 0.33,0 0.73,0.31 1.46,0.31 1.22,0 2.06,-1.06 2.06,-2.11 0,-1.57 -1.08,-1.69 -2.46,-1.88 -0.72,-0.1 -1.13,-0.21 -1.13,-0.77 0,-0.61 0.53,-0.86 1.22,-0.86 0.97,0 1.34,0.64 1.66,1.48 h 0.3 v -1.83 h -0.29 c 0,0.15 -0.13,0.28 -0.38,0.28 -0.41,0 -0.75,-0.28 -1.34,-0.28 -1.29,0 -1.92,1.09 -1.92,1.92 0,1.66 1.26,1.8 2.24,1.92 0.93,0.12 1.26,0.18 1.26,0.77 0,0.68 -0.57,0.99 -1.26,0.99 -0.98,0 -1.65,-0.85 -1.88,-1.79 h -0.31 v 2.16 z"
     id="path2228" /><polygon
     class="cls-1"
     points="106.42,3.7 109.08,3.7 109.08,9.03 109.97,9.03 109.97,9.38 106.42,9.38 106.42,9.03 107.31,9.03 107.31,4.07 106.42,4.07 "
     id="polygon2230"
     transform="translate(47.674731,30.56677)" /><path
     class="cls-1"
     d="m 154.98473,32.48677 c 0,0.49 0.39,0.89 0.89,0.89 0.5,0 0.89,-0.39 0.89,-0.89 0,-0.5 -0.39,-0.89 -0.89,-0.89 -0.5,0 -0.89,0.39 -0.89,0.89"
     id="path2232" /><path
     class="cls-1"
     d="m 179.92473,32.48677 c 0,0.49 0.39,0.89 0.89,0.89 0.5,0 0.89,-0.39 0.89,-0.89 0,-0.5 -0.39,-0.89 -0.89,-0.89 -0.5,0 -0.89,0.39 -0.89,0.89"
     id="path2234" /><path
     class="cls-1"
     d="m 77.434731,36.49677 v -0.87 c 0,-0.86 0.37,-1.13 0.81,-1.13 0.62,0 0.81,0.42 0.81,1.13 v 0.87 z m 0,0.35 h 3.55 c -0.01,-1.39 -1.3,-2.73 -2.65,-2.7 -1.52,0 -2.83,1.31 -2.83,3.05 0,1.74 1.22,2.92 2.87,2.92 1.65,0 2.37,-0.98 2.65,-2.25 h -0.35 c -0.28,1.2 -0.91,1.88 -1.92,1.88 -1.2,0 -1.33,-0.94 -1.33,-1.81 v -1.08 z"
     id="path2236" /><path
     class="cls-1"
     d="m 92.984731,36.49677 v -0.87 c 0,-0.86 0.37,-1.13 0.81,-1.13 0.46,0 0.81,0.27 0.81,1.13 v 0.87 z m 0,0.35 h 3.55 c -0.01,-1.39 -1.3,-2.73 -2.65,-2.7 -1.52,0 -2.83,1.31 -2.83,3.05 0,1.74 1.22,2.92 2.87,2.92 1.65,0 2.37,-0.98 2.65,-2.25 h -0.35 c -0.28,1.2 -0.91,1.88 -1.92,1.88 -1.2,0 -1.33,-0.94 -1.33,-1.81 v -1.08 z"
     id="path2238" /><path
     class="cls-1"
     d="m 152.95473,39.59677 v -3.48 c 0,-1.39 -0.59,-2.04 -1.82,-2.04 -0.86,0 -1.74,0.5 -2.09,1.24 v 0 -1.04 h -2.67 v 0.35 h 0.89 v 4.97 h -0.89 v 0.35 h 3.43 v -0.35 h -0.76 v -3.4 c 0.11,-0.48 0.72,-1.58 1.42,-1.58 0.47,0 0.7,0.16 0.7,1.03 v 3.95 h -0.73 v 0.35 h 3.4 v -0.35 h -0.89 z"
     id="path2240" /><path
     class="cls-1"
     d="m 131.31473,34.30677 v 1.04 0 c 0.35,-0.75 1.22,-1.24 2.09,-1.24 1.22,0 1.82,0.65 1.82,2.04 v 3.48 h 0.89 v 0.35 h -3.4 v -0.35 h 0.73 v -3.95 c 0,-0.86 -0.24,-1.03 -0.7,-1.03 -0.7,0 -1.31,1.1 -1.42,1.58 v 3.4 c 0,0 0.76,0 0.76,0 v 0.35 h -3.43 v -0.35 h 0.89 v -4.98 h -0.89 v -0.35 h 2.67 z"
     id="path2242" /><path
     class="cls-1"
     d="m 74.604731,39.61677 v -3.48 c 0,-1.39 -0.59,-2.04 -1.82,-2.04 -0.86,0 -1.74,0.5 -2.09,1.24 v 0 -1.04 h -2.67 v 0.35 h 0.89 v 4.97 h -0.89 v 0.35 h 3.43 v -0.35 h -0.76 v -3.4 c 0.11,-0.48 0.72,-1.58 1.42,-1.58 0.47,0 0.7,0.16 0.7,1.03 v 3.95 h -0.73 v 0.35 h 3.4 v -0.35 h -0.89 z"
     id="path2244" /><path
     class="cls-1"
     d="m 88.334731,32.52677 c 0,0.49 0.39,0.89 0.89,0.89 0.5,0 0.89,-0.39 0.89,-0.89 0,-0.5 -0.39,-0.89 -0.89,-0.89 -0.5,0 -0.89,0.39 -0.89,0.89"
     id="path2246" /><path
     class="cls-1"
     d="m 190.34473,34.26677 v 0.37 c 0.55,0 0.79,0.05 0.79,0.3 0,0.21 -0.07,0.41 -0.22,0.78 l -0.88,2.06 -1.4,-3.14 h 0.73 v -0.37 h -4.44 v -2.76 h -0.23 c 0,1.36 -0.93,2.77 -2.23,2.77 v 0.37 h 0.68 v 3.98 c 0,1.22 1.06,1.47 1.42,1.47 0.79,0 1.31,-0.32 1.71,-0.99 l -0.28,-0.15 c -0.15,0.23 -0.36,0.54 -0.68,0.54 -0.26,0 -0.39,-0.18 -0.39,-0.61 v -4.25 h 1.8 l 2.35,5.43 -0.81,1.92 v 0 c 0,0 0,0 0,0 v 0 c 0,0 -0.05,0.06 -0.1,0.06 -0.05,0 -0.08,-0.03 -0.1,-0.07 0,0 0,0 0,0 -0.1,-0.37 -0.44,-0.64 -0.85,-0.64 -0.49,0 -0.89,0.39 -0.89,0.89 0,0.35 0.2,0.64 0.48,0.79 0,0 0,0 0,0 0,0 0.02,0 0.03,0.01 0.02,0 0.03,0.02 0.05,0.02 0.1,0.04 0.21,0.07 0.32,0.07 0.75,0.06 1.13,-0.49 1.39,-1.05 0.06,-0.13 0.11,-0.26 0.16,-0.38 0.11,-0.27 0.31,-0.74 0.54,-1.29 v 0 c 0,0 0.22,-0.52 0.22,-0.52 v 0 c 0,0 1.81,-4.28 1.81,-4.28 0.39,-0.84 0.54,-0.95 1,-0.95 v 0 -0.37 h -2.01 z"
     id="path2248" /><path
     class="cls-1"
     d="m 66.734731,34.08677 c -0.82,0 -1.46,0.57 -1.7,1.21 h -0.03 v -0.98 h -2.64 v 0.36 h 0.89 v 4.95 h -0.89 v 0.35 h 3.85 v -0.35 h -1.18 v -2.77 c 0,-0.83 0.22,-1.68 0.76,-2.14 0.03,-0.02 0.07,-0.03 0.11,-0.01 0.04,0.02 0.06,0.07 0.06,0.11 v 0 c -0.04,0.1 -0.06,0.22 -0.07,0.37 -0.02,0.47 0.37,0.84 0.88,0.84 0.62,0 0.98,-0.45 0.98,-0.94 0,-0.62 -0.41,-0.99 -1.02,-0.99 z"
     id="path2250" /><path
     class="cls-1"
     d="m 86.124731,34.50677 c 0,0 0.06,-0.02 0.08,0 0.02,0.02 0.02,0.04 0,0.07 v 0 c -0.08,0.13 -0.11,0.3 -0.05,0.47 0.06,0.17 0.21,0.31 0.39,0.35 0.37,0.08 0.69,-0.19 0.69,-0.54 0,-0.23 -0.14,-0.4 -0.3,-0.5 -0.16,-0.1 -0.36,-0.15 -0.57,-0.15 -0.34,0 -0.69,0.18 -0.95,0.4 0,0 0,0 0,0 -0.06,-0.04 -0.12,-0.08 -0.18,-0.12 -0.35,-0.21 -0.82,-0.34 -1.43,-0.34 -1.08,0 -2.24,0.71 -2.24,1.88 0,0.71 0.39,1.26 1.07,1.57 v 0.03 c -0.5,0.06 -1.29,0.41 -1.29,1.48 0,0.64 0.3,1.13 0.84,1.29 v 0.03 c -0.52,0.14 -1.11,0.66 -1.11,1.28 0,0.95 1.12,1.69 2.55,1.69 1.79,0 2.96,-1.21 2.96,-2.78 0,-1.25 -0.62,-1.82 -1.88,-1.79 h -2.14 c -0.32,0 -0.54,-0.01 -0.54,-0.36 0,-0.32 0.49,-0.67 0.98,-0.67 0.09,0 0.23,0.07 0.26,0.08 0.16,0.05 0.32,0.08 0.53,0.08 1.11,0 2.29,-0.63 2.29,-1.85 0,-0.38 -0.16,-0.9 -0.47,-1.22 -0.02,-0.02 -0.02,-0.05 0,-0.07 0.12,-0.1 0.27,-0.18 0.34,-0.22 0.06,-0.03 0.1,-0.05 0.15,-0.07 v 0 z m -1.71,5.92 c 1.29,0 1.63,0.05 1.63,0.84 0,0.94 -1.15,1.8 -2.45,1.8 -1.16,0 -1.72,-0.71 -1.74,-1.33 0,-0.57 0.28,-0.94 0.63,-1.31 z m 0.22,-4.4 c 0,1.5 -0.35,1.55 -0.81,1.55 -0.52,0 -0.79,-0.1 -0.79,-1.59 0,-1.04 0.12,-1.49 0.79,-1.49 0.61,0 0.8,0.04 0.81,1.52 v 0 z"
     id="path2252" /><path
     class="cls-1"
     d="m 173.18473,34.03677 c -0.82,0 -1.46,0.57 -1.7,1.21 h -0.03 v -0.98 h -2.64 v 0.36 h 0.89 v 4.95 h -0.89 v 0.35 h 3.85 v -0.35 h -1.18 v -2.77 c 0,-0.83 0.22,-1.67 0.76,-2.14 0.03,-0.02 0.07,-0.03 0.11,-0.01 0.04,0.02 0.06,0.07 0.06,0.11 v 0 c -0.03,0.1 -0.06,0.22 -0.07,0.37 -0.02,0.47 0.37,0.84 0.88,0.84 0.62,0 0.98,-0.45 0.98,-0.94 0,-0.62 -0.41,-0.99 -1.02,-0.99 z"
     id="path2254" /><g
     id="g14900"
     transform="translate(0.47024525,7.3258138)"><path
       sodipodi:type="star"
       style="fill:#c00000;fill-opacity:1"
       id="path13560"
       inkscape:flatsided="true"
       sodipodi:sides="3"
       sodipodi:cx="35.986362"
       sodipodi:cy="-3.9946251"
       sodipodi:r1="2.9178131"
       sodipodi:r2="1.4589067"
       sodipodi:arg1="1.5707963"
       sodipodi:arg2="2.6179939"
       inkscape:rounded="0"
       inkscape:randomized="0"
       d="m 35.986363,-1.076812 -2.526901,-4.3767196 5.053801,-1e-7 z"
       inkscape:transform-center-y="-1.1810197"
       transform="matrix(1.79042,0,0,-1.6190476,-37.701451,-0.49291857)"
       inkscape:transform-center-x="1.5662471e-06" /><path
       sodipodi:type="star"
       style="fill:#ed7d31;fill-opacity:1"
       id="path13590"
       inkscape:flatsided="true"
       sodipodi:sides="3"
       sodipodi:cx="11.18495"
       sodipodi:cy="-4.4461913"
       sodipodi:r1="4.867486"
       sodipodi:r2="2.433743"
       sodipodi:arg1="0.042830933"
       sodipodi:arg2="1.0900285"
       inkscape:rounded="0"
       inkscape:randomized="0"
       d="M 16.047972,-4.2377761 8.572946,-0.33889833 8.9339318,-8.7618995 Z"
       inkscape:transform-center-x="-1.2667229"
       inkscape:transform-center-y="-0.11715813"
       transform="matrix(1.1254669,0,0,1.1242774,1.7727202,5.4308902)" /><path
       sodipodi:type="star"
       style="fill:#ffc000;fill-opacity:1"
       id="path13594"
       inkscape:flatsided="true"
       sodipodi:sides="3"
       sodipodi:cx="16.306505"
       sodipodi:cy="13.677081"
       sodipodi:r1="2.0229681"
       sodipodi:r2="1.011484"
       sodipodi:arg1="1.7840008"
       sodipodi:arg2="2.8311984"
       inkscape:rounded="0"
       inkscape:randomized="0"
       d="m 15.87846,15.654245 -1.070206,-3.336444 3.424548,0.741397 z"
       inkscape:transform-center-x="-0.47315066"
       inkscape:transform-center-y="0.68299272"
       transform="matrix(2.2107499,0,0,2.2107499,-23.697519,-15.301056)" /><rect
       style="fill:#c00000;fill-opacity:1;stroke-width:1.12964"
       id="rect14254"
       width="3.6423173"
       height="21.597403"
       x="24.967916"
       y="6.4324369"
       ry="1.8404372" /><rect
       style="fill:#ed7d31;fill-opacity:1;stroke-width:1.46101"
       id="rect14254-9"
       width="4.1040211"
       height="32.062649"
       x="10.587157"
       y="6.9313712"
       ry="2.2942863"
       transform="matrix(0.90791783,-0.41914821,0.4194638,0.90777206,0,0)" /><rect
       style="fill:#ffc000;fill-opacity:1;stroke-width:1.13391"
       id="rect14559"
       width="3.591017"
       height="21.905205"
       x="-4.2314782"
       y="18.85951"
       ry="1.8699564"
       transform="rotate(-47.472218)" /><ellipse
       style="fill:#ffffff;fill-opacity:1;stroke-width:0.883883"
       id="path14891"
       cx="27.10289"
       cy="28.194729"
       rx="1.256856"
       ry="1.2825061" /></g><text
     xml:space="preserve"
     style="font-style:normal;font-variant:normal;font-weight:bold;font-stretch:normal;font-size:8.66667px;font-family:Arial;-inkscape-font-specification:'Arial, Bold';font-variant-ligatures:normal;font-variant-caps:normal;font-variant-numeric:normal;font-variant-east-asian:normal;fill:#040404"
     x="29.927416"
     y="22.93972"
     id="text1367"><tspan
       sodipodi:role="line"
       id="tspan1365"
       x="29.927416"
       y="22.93972">National</tspan></text><text
     xml:space="preserve"
     style="font-style:normal;font-variant:normal;font-weight:bold;font-stretch:normal;font-size:8.66667px;font-family:Arial;-inkscape-font-specification:'Arial, Bold';font-variant-ligatures:normal;font-variant-caps:normal;font-variant-numeric:normal;font-variant-east-asian:normal;fill:#040404"
     x="29.671587"
     y="30.037634"
     id="text1367-9"><tspan
       sodipodi:role="line"
       id="tspan1365-7"
       x="29.671587"
       y="30.037634">Biomechanics</tspan></text><text
     xml:space="preserve"
     style="font-style:normal;font-variant:normal;font-weight:bold;font-stretch:normal;font-size:8.66667px;font-family:Arial;-inkscape-font-specification:'Arial, Bold';font-variant-ligatures:normal;font-variant-caps:normal;font-variant-numeric:normal;font-variant-east-asian:normal;fill:#040404"
     x="29.665245"
     y="37.007137"
     id="text1367-9-9"><tspan
       sodipodi:role="line"
       id="tspan1365-7-9"
       x="29.665245"
       y="37.007137">Day</tspan><tspan
       sodipodi:role="line"
       x="29.665245"
       y="47.840473"
       id="tspan1527" /></text></svg>
