<?xml version="1.0" encoding="UTF-8" standalone="no"?>
<svg
   id="Carnegie_Mellon_University"
   viewBox="0 0 200.68 17"
   version="1.1"
   sodipodi:docname="cmu-banner-3.svg"
   width="200.67999"
   height="17"
   xml:space="preserve"
   inkscape:version="1.2.1 (9c6d41e, 2022-07-14)"
   inkscape:export-filename="cmu-banner-3.png"
   inkscape:export-xdpi="800.09998"
   inkscape:export-ydpi="800.09998"
   xmlns:inkscape="http://www.inkscape.org/namespaces/inkscape"
   xmlns:sodipodi="http://sodipodi.sourceforge.net/DTD/sodipodi-0.dtd"
   xmlns:xlink="http://www.w3.org/1999/xlink"
   xmlns="http://www.w3.org/2000/svg"
   xmlns:svg="http://www.w3.org/2000/svg"><sodipodi:namedview
     id="namedview2257"
     pagecolor="#ffffff"
     bordercolor="#000000"
     borderopacity="0.25"
     inkscape:showpageshadow="2"
     inkscape:pageopacity="0.0"
     inkscape:pagecheckerboard="false"
     inkscape:deskcolor="#d1d1d1"
     showgrid="false"
     inkscape:zoom="2.8798157"
     inkscape:cx="66.497311"
     inkscape:cy="3.9933111"
     inkscape:window-width="1440"
     inkscape:window-height="831"
     inkscape:window-x="0"
     inkscape:window-y="26"
     inkscape:window-maximized="0"
     inkscape:current-layer="Carnegie_Mellon_University" /><defs
     id="defs2202"><linearGradient
       inkscape:collect="always"
       id="linearGradient13246"><stop
         style="stop-color:#f4b943;stop-opacity:1;"
         offset="0"
         id="stop13242" /><stop
         style="stop-color:#fca42a;stop-opacity:1;"
         offset="1"
         id="stop13244" /></linearGradient><linearGradient
       inkscape:collect="always"
       id="linearGradient10823"><stop
         style="stop-color:#d36229;stop-opacity:1;"
         offset="0"
         id="stop10819" /><stop
         style="stop-color:#faa22a;stop-opacity:1;"
         offset="1"
         id="stop10821" /></linearGradient><linearGradient
       inkscape:collect="always"
       id="linearGradient4536"><stop
         style="stop-color:#fea82a;stop-opacity:1;"
         offset="0"
         id="stop4532" /><stop
         style="stop-color:#d36229;stop-opacity:1;"
         offset="1"
         id="stop4534" /></linearGradient><linearGradient
       inkscape:collect="always"
       id="linearGradient3420"><stop
         style="stop-color:#eaa03c;stop-opacity:1;"
         offset="0"
         id="stop3418" /><stop
         style="stop-color:#d26129;stop-opacity:1;"
         offset="1"
         id="stop3416" /></linearGradient><inkscape:path-effect
       effect="spiro"
       id="path-effect2425"
       is_visible="true"
       lpeversion="1" /><inkscape:path-effect
       effect="spiro"
       id="path-effect2421"
       is_visible="true"
       lpeversion="1" /><inkscape:path-effect
       effect="spiro"
       id="path-effect2417"
       is_visible="true"
       lpeversion="1" /><inkscape:path-effect
       effect="spiro"
       id="path-effect2413"
       is_visible="true"
       lpeversion="1" /><inkscape:path-effect
       effect="spiro"
       id="path-effect2409"
       is_visible="true"
       lpeversion="1" /><color-profile
       name="_43S425CA"
       xlink:href="file:///Library/ColorSync/Profiles/Displays/43S425CA-D38273AF-E01B-DC11-0857-D6964E3302DB.icc"
       id="color-profile18558" /><color-profile
       name="Black---White"
       xlink:href="file:///Library/ColorSync/Profiles/Black%20&amp;%20White.icc"
       id="color-profile18560" /><rect
       x="29.871523"
       y="6.5507722"
       width="58.607574"
       height="26.552464"
       id="rect15012" /><rect
       x="31.705738"
       y="5.9393668"
       width="53.279613"
       height="26.727152"
       id="rect14956" /><style
       id="style2200">.cls-1{fill:#c41230;}</style><linearGradient
       inkscape:collect="always"
       xlink:href="#linearGradient3420"
       id="linearGradient3422"
       x1="19.691639"
       y1="-30.644394"
       x2="52.951382"
       y2="-30.644394"
       gradientUnits="userSpaceOnUse"
       gradientTransform="matrix(-0.83420675,0.16618196,0.71860063,0.58237979,51.527936,17.402607)" /><linearGradient
       inkscape:collect="always"
       xlink:href="#linearGradient4536"
       id="linearGradient4538"
       x1="89.847176"
       y1="-31.541382"
       x2="144.96516"
       y2="-31.541382"
       gradientUnits="userSpaceOnUse"
       gradientTransform="matrix(0.79403312,0,0,0.51365718,55.095608,25.564837)" /><linearGradient
       inkscape:collect="always"
       xlink:href="#linearGradient10823"
       id="linearGradient10825"
       x1="106.25395"
       y1="-52.962406"
       x2="145.41792"
       y2="-52.962406"
       gradientUnits="userSpaceOnUse"
       gradientTransform="matrix(0.89284484,0,0,0.68226416,-47.713394,43.543167)" /><linearGradient
       inkscape:collect="always"
       xlink:href="#linearGradient13246"
       id="linearGradient13248"
       x1="58.245007"
       y1="-19.999111"
       x2="70.164894"
       y2="-19.999111"
       gradientUnits="userSpaceOnUse"
       gradientTransform="matrix(1.6965006,0,0,1.0320337,-83.708667,31.871099)" /><inkscape:path-effect
       effect="spiro"
       id="path-effect2417-9"
       is_visible="true"
       lpeversion="1" /><linearGradient
       inkscape:collect="always"
       xlink:href="#linearGradient13246"
       id="linearGradient14943"
       gradientUnits="userSpaceOnUse"
       gradientTransform="matrix(1.8285813,0,0,0.78303589,-7.1890716,21.43172)"
       x1="58.245007"
       y1="-19.999111"
       x2="70.164894"
       y2="-19.999111" /><inkscape:path-effect
       effect="spiro"
       id="path-effect2409-3"
       is_visible="true"
       lpeversion="1" /><linearGradient
       inkscape:collect="always"
       xlink:href="#linearGradient3420"
       id="linearGradient15023"
       gradientUnits="userSpaceOnUse"
       gradientTransform="matrix(0.83420675,0.16618196,-0.71860063,0.58237979,139.03747,19.554167)"
       x1="19.691639"
       y1="-30.644394"
       x2="52.951382"
       y2="-30.644394" /></defs><rect
     style="fill:#ffffff;fill-opacity:1;stroke-width:1.07617"
     id="rect1857"
     width="206.9043"
     height="49.533783"
     x="-2.1330338"
     y="-1.8960305" /><path
     style="fill:url(#linearGradient3422);fill-opacity:1;stroke-width:0.777973"
     d="M -3.7689309,-0.54377338 C -5.3469852,-0.01871617 -6.653003,1.082316 -8.0188436,2.0312205 c -1.3813781,0.9596991 -2.8797414,1.7901129 -4.5122734,2.1951657 -0.570257,0.1414884 -1.157205,0.2314003 -1.701219,0.4533484 -0.272007,0.1109741 -0.532309,0.25531 -0.755822,0.4459534 -0.223513,0.1906433 -0.409575,0.42907 -0.518888,0.7017487 -0.112275,0.2800656 -0.140938,0.5906002 -0.09983,0.8895185 0.04111,0.2989183 0.150464,0.5864132 0.302668,0.846944 0.304408,0.5210614 0.770977,0.9272333 1.25657,1.2855188 1.974971,1.457194 4.4036636,2.26803 6.8555172,2.379118 2.05459,0.09309 4.099881,-0.289036 6.1552839,-0.362005 2.131491,-0.07567 4.2619093,0.181472 6.39469,0.166424 C 6.8284451,11.022579 8.323154,10.87647 9.6838403,10.318552 10.364183,10.039593 11.005671,9.658025 11.551309,9.1651108 12.096946,8.6721965 12.545217,8.066124 12.823108,7.3853438 13.368744,6.0486377 13.204779,4.450403 12.419294,3.2389926 11.633809,2.0275822 10.254055,1.2288202 8.8139051,1.1265014 7.7214627,1.0488863 6.6426019,1.3461657 5.5698918,1.5669542 4.4971816,1.7877427 3.3565677,1.9290473 2.3274131,1.554487 1.6273604,1.2997032 1.0333477,0.82519407 0.44119675,0.37314776 -0.15095417,-0.07889856 -0.77419808,-0.52549366 -1.4963639,-0.70842838 c -0.7463843,-0.18906961 -1.5419864,-0.078427 -2.272567,0.164655 z"
     id="path2407"
     inkscape:path-effect="#path-effect2409"
     inkscape:original-d="M -3.7689309,-0.54377338 C -4.526338,-0.48963658 -6.602321,1.1736382 -8.0188436,2.0312205 -9.4353649,2.8888034 -11.02714,3.495413 -12.531117,4.2263862 c -1.503974,0.7309733 -1.984068,1.0681152 -2.975929,1.6010505 -0.99186,0.5329349 0.972825,2.0154024 1.459411,3.0219813 0.486581,1.006579 4.5702294,1.586828 6.8555172,2.379118 2.285288,0.792291 4.1034069,-0.240588 6.1552839,-0.362005 2.051875,-0.121417 4.263011,0.111699 6.39469,0.166424 2.131678,0.05472 4.9767199,-2.4309919 7.4652519,-3.6476112 C 15.311643,6.1687234 10.150189,3.2135304 8.8139051,1.1265014 7.4776191,-0.96052778 4.4894621,1.4125741 2.3274131,1.554487 0.16536515,1.6964006 -0.22188785,0.04662532 -1.4963639,-0.70842838 c -1.274477,-0.75505392 -1.515161,0.1105185 -2.272567,0.164655 z" /><path
     style="fill:url(#linearGradient15023);fill-opacity:1;stroke-width:0.777973"
     d="m 194.33433,1.607787 c 1.57806,0.5250575 2.88408,1.6260884 4.24992,2.5749941 1.38138,0.9596985 2.87974,1.790115 4.51227,2.1951655 0.57026,0.1414881 1.15721,0.2313987 1.70123,0.4533464 0.272,0.1109738 0.53231,0.2553097 0.75582,0.4459534 0.22351,0.1906437 0.40958,0.4290711 0.51889,0.7017508 0.11227,0.280066 0.14094,0.5906011 0.0998,0.8895197 -0.0411,0.2989186 -0.15047,0.5864136 -0.30267,0.8469442 -0.30441,0.5210609 -0.77099,0.9272319 -1.25658,1.2855169 -1.97497,1.457188 -4.40366,2.268028 -6.85551,2.379118 -2.05459,0.09309 -4.09988,-0.289035 -6.15528,-0.362005 -2.1315,-0.07567 -4.26192,0.181473 -6.39471,0.166425 -1.47059,-0.01038 -2.9653,-0.156486 -4.32598,-0.714404 -0.68035,-0.278959 -1.32183,-0.660526 -1.86747,-1.153441 -0.54564,-0.492914 -0.99391,-1.098987 -1.2718,-1.7797669 -0.54564,-1.3367071 -0.38167,-2.9349428 0.40382,-4.1463532 0.78548,-1.2114104 2.16524,-2.0101715 3.60539,-2.112489 1.09244,-0.077614 2.1713,0.2196658 3.24401,0.4404543 1.07271,0.2207885 2.21333,0.3620925 3.24248,-0.012469 0.70005,-0.2547841 1.29406,-0.7292931 1.88621,-1.1813393 0.59215,-0.4520463 1.2154,-0.8986412 1.93756,-1.0815762 0.74639,-0.1890704 1.54199,-0.078427 2.27257,0.1646549 z"
     id="path2407-6"
     inkscape:path-effect="#path-effect2409-3"
     inkscape:original-d="m 194.33433,1.607787 c 0.75742,0.054137 2.83339,1.7174115 4.24992,2.5749941 1.41652,0.8575825 3.00831,1.4641923 4.51227,2.1951655 1.50399,0.7309733 1.98408,1.0681151 2.97594,1.6010506 0.99185,0.5329349 -0.97283,2.0154023 -1.45942,3.0219808 -0.48658,1.006578 -4.57023,1.586828 -6.85551,2.379118 -2.28529,0.792291 -4.10341,-0.240589 -6.15528,-0.362005 -2.05187,-0.121418 -4.26302,0.111698 -6.39471,0.166425 -2.13168,0.05472 -4.97671,-2.430993 -7.46525,-3.6476119 -2.48852,-1.2166203 2.67293,-4.1718132 4.00921,-6.2588422 1.33629,-2.0870291 4.32445,0.2860728 6.48649,0.4279857 2.16204,0.1419135 2.54931,-1.5078619 3.82377,-2.2629155 1.27449,-0.75505368 1.51518,0.1105185 2.27257,0.1646549 z" /><path
     style="fill:url(#linearGradient13248);fill-opacity:1;stroke-width:1.32319"
     d="m 31.238666,8.4942313 c 0.493959,-0.209222 1.045164,-0.2813521 1.576325,-0.2062762 0.531162,0.075076 1.040784,0.2971463 1.457407,0.6350726 0.416624,0.3379262 0.739074,0.7907564 0.922139,1.2949953 0.183065,0.504238 0.226228,1.058464 0.123436,1.584965 -0.16066,0.822903 -0.668974,1.550021 -1.308662,2.092036 -0.639687,0.542015 -1.405916,0.914234 -2.187889,1.216722 -3.796315,1.468519 -8.028477,1.377463 -12.043666,0.709019 -1.091299,-0.181678 -2.205685,-0.416116 -3.132357,-1.020449 -0.463336,-0.302167 -0.872307,-0.696299 -1.153358,-1.172739 -0.281052,-0.47644 -0.429359,-1.037636 -0.376349,-1.588249 0.03959,-0.411204 0.189458,-0.80788 0.40686,-1.159152 0.217402,-0.351272 0.501073,-0.658542 0.815019,-0.9270442 0.627892,-0.5370049 1.370449,-0.9181533 2.080415,-1.3407298 1.221819,-0.7272347 2.372883,-1.5933913 3.690802,-2.12706 1.415003,-0.5729813 2.992973,-0.73682 4.495508,-0.4667632 1.502534,0.2700569 2.924692,0.9731211 4.051611,2.0029728"
     id="path2415"
     inkscape:path-effect="#path-effect2417"
     inkscape:original-d="m 31.238666,8.4942313 c 1.361465,1.1039517 2.721235,2.2068707 4.079307,3.3087567 1.358073,1.101886 -2.329336,2.206869 -3.496551,3.308758 -1.167212,1.101887 -8.027414,0.473711 -12.043666,0.709019 -4.016254,0.235308 -3.106348,-2.519925 -4.662064,-3.781437 -1.555718,-1.261512 2.203225,-2.2835859 3.302294,-3.426926 1.09907,-1.1433413 2.462231,-1.4170072 3.690802,-2.12706 1.22857,-0.7100495 5.699779,1.0251723 8.547119,1.5362096" /><path
     style="fill:url(#linearGradient14943);fill-opacity:1;stroke-width:1.1966"
     d="m 116.70745,3.6949656 c 0.38611,-0.4505265 0.93223,-0.7610279 1.51685,-0.8624181 0.58462,-0.1013901 1.2034,0.00708 1.71867,0.301282 0.51527,0.2941997 0.92321,0.7719475 1.13306,1.326945 0.20984,0.5549974 0.22003,1.1831332 0.0283,1.7446479 -0.25555,0.7484309 -0.8497,1.3468153 -1.53486,1.7417846 -0.68517,0.3949692 -1.45997,0.6060016 -2.23391,0.7686724 -4.2465,0.8925455 -8.64323,0.4363719 -12.98132,0.5379546 -1.10813,0.025949 -2.25496,0.082263 -3.28442,-0.3286567 -0.51472,-0.2054596 -0.98977,-0.5308324 -1.319568,-0.9762416 -0.329801,-0.4454092 -0.504412,-1.016283 -0.421041,-1.5641948 0.05839,-0.3837056 0.239327,-0.7432932 0.487697,-1.0415405 0.248372,-0.2982474 0.562322,-0.5374201 0.900152,-0.7284986 0.67565,-0.3821568 1.4389,-0.5736192 2.17156,-0.8300767 1.3512,-0.4729705 2.61556,-1.1747747 3.97814,-1.6138654 3.0423,-0.9803771 6.51026,-0.5416109 9.21253,1.1655694"
     id="path2415-0"
     inkscape:path-effect="#path-effect2417-9"
     inkscape:original-d="m 116.70745,3.6949656 c 1.46746,0.8376026 2.93309,1.6744216 4.39689,2.5104568 1.4638,0.8360355 -2.51068,1.67442 -3.76877,2.510457 -1.25808,0.8360354 -8.65239,0.3594191 -12.98132,0.5379546 -4.32894,0.1785355 -3.34819,-1.9119453 -5.025029,-2.8690931 -1.676834,-0.957148 2.374759,-1.7326275 3.559409,-2.6001158 1.18462,-0.8674877 2.65391,-1.075127 3.97814,-1.6138654 1.32421,-0.5387368 6.14353,0.7778299 9.21253,1.1655694" /><path
     style="fill:url(#linearGradient4538);fill-opacity:1;stroke-width:0.63864"
     d="m 143.49397,2.7329623 c -2.30723,-0.152584 -4.63626,-0.068516 -6.9098,0.3528887 -2.18505,0.4050031 -4.31627,1.1234212 -6.27337,2.1761474 -0.75184,0.4044144 -1.48208,0.8610803 -2.11046,1.4389718 -0.62837,0.5778915 -1.15383,1.2839627 -1.43535,2.0899145 -0.26534,0.7596274 -0.30575,1.5929023 -0.13925,2.3801223 0.1665,0.787221 0.53702,1.52741 1.04843,2.148615 0.63438,0.770577 1.47757,1.354218 2.39003,1.758769 0.91245,0.404551 1.89424,0.63566 2.88324,0.770264 4.93123,0.671147 9.85444,-1.015457 14.81969,-1.352739 2.73653,-0.185888 5.49491,0.04117 8.18265,0.588148 1.6174,0.329155 3.2141,0.77408 4.85158,0.981433 1.63747,0.207353 3.34612,0.165671 4.8767,-0.452099 1.38717,-0.559885 2.60336,-1.625783 3.15954,-3.014437 0.27809,-0.694327 0.38731,-1.459062 0.28836,-2.200435 -0.099,-0.7413734 -0.40901,-1.4570383 -0.9022,-2.0193451 -0.717,-0.8174879 -1.77408,-1.2705483 -2.84146,-1.4780957 -1.06738,-0.2075473 -2.16321,-0.1941866 -3.25007,-0.227533 -2.45909,-0.075448 -4.92112,-0.3968459 -7.27346,-1.1174804 -1.47398,-0.4515507 -2.89663,-1.0568665 -4.36409,-1.5291842 -2.26465,-0.7289044 -4.62683,-1.1369332 -7.00071,-1.2939253 z"
     id="path2419"
     inkscape:path-effect="#path-effect2421"
     inkscape:original-d="m 143.49397,2.7329623 c -2.33436,-0.4318223 -4.60573,0.2357723 -6.9098,0.3528887 -2.30406,0.1171157 -4.18145,1.4512782 -6.27337,2.1761474 -2.09191,0.7248682 -2.36309,2.3531033 -3.54581,3.5288863 -1.18273,1.1757804 0.60692,3.0196703 0.90918,4.5287373 0.30227,1.509065 3.51631,1.686536 5.27327,2.529033 1.75696,0.8425 9.88059,-0.901311 14.81969,-1.352739 4.93911,-0.451426 5.4559,0.392612 8.18265,0.588148 2.72675,0.195536 6.48631,0.353403 9.72828,0.529334 3.24195,0.17593 1.69794,-4.822298 2.5457,-7.2342171 0.84779,-2.4119193 -4.06022,-1.1365723 -6.09153,-1.7056287 -2.0313,-0.569056 -4.84817,-0.7444734 -7.27346,-1.1174804 -2.42528,-0.3730069 -2.90859,-1.0189426 -4.36409,-1.5291842 -1.45549,-0.5102418 -4.66635,-0.8621031 -7.00071,-1.2939253 z" /><path
     style="fill:url(#linearGradient10825);fill-opacity:1;stroke-width:0.780491"
     d="m 47.158377,7.4514495 c -0.0062,0.3721156 0.0848,0.7419732 0.233864,1.0829829 0.149066,0.3410097 0.355164,0.6546437 0.583989,0.9481521 1.191356,1.5281225 2.973035,2.4934505 4.804934,3.1248245 3.80344,1.310877 8.034745,1.32706 11.858971,0.07812 1.836256,-0.599696 3.602886,-1.486177 5.520547,-1.718653 2.135252,-0.258855 4.295634,0.314934 6.440657,0.15624 1.335744,-0.09882 2.676353,-0.499337 3.732829,-1.3226457 C 80.862405,9.3888161 81.313785,8.8745854 81.630249,8.2843781 81.946713,7.6941708 82.12601,7.0274446 82.12189,6.3577601 82.116182,5.4297662 81.757622,4.5229255 81.201797,3.7797807 80.52842,2.8794667 79.565143,2.2043354 78.496909,1.8537949 77.428675,1.5032544 76.260585,1.4751602 75.170077,1.7486447 74.142824,2.0062657 73.201135,2.518059 72.248956,2.9817112 71.296777,3.4453633 70.297691,3.8714251 69.240598,3.9360218 68.117993,4.0046219 67.009363,3.6595262 65.977409,3.2122902 64.945455,2.7650542 63.958921,2.2117805 62.902175,1.8267655 60.984177,1.1279621 58.866793,1.009886 56.870464,1.4361625 c -2.27736,0.486285 -4.343501,1.6437783 -6.440652,2.6561005 -0.743725,0.3590058 -1.505614,0.7076544 -2.13547,1.2417826 -0.314929,0.2670641 -0.594221,0.5799612 -0.798203,0.9389796 -0.203983,0.3590185 -0.330906,0.7655611 -0.337762,1.1784243 z"
     id="path2423"
     inkscape:path-effect="#path-effect2425"
     inkscape:original-d="m 47.158377,7.4514495 c -1.091379,1.1190461 0.546124,1.3547724 0.817853,2.031135 0.271728,0.6763635 3.20418,2.0838985 4.804934,3.1248245 1.600745,1.040926 7.906873,0.05276 11.858971,0.07812 3.952097,0.02536 3.68126,-1.145086 5.520547,-1.718653 1.839296,-0.573567 4.294669,0.104842 6.440657,0.15624 2.145986,0.0514 3.681256,-3.1762216 5.520551,-4.7653559 C 83.961179,4.7686261 81.509392,4.6397895 81.201797,3.7797807 80.894202,2.9197717 77.181538,2.4263726 75.170077,1.7486447 73.158612,1.0709179 71.21798,3.2075787 69.240598,3.9360218 67.263204,4.6644648 65.015878,2.5305333 62.902175,1.8267655 60.788482,1.1229978 58.881928,1.567046 56.870464,1.4361625 54.858991,1.3052798 52.577585,3.2075787 50.429812,4.092263 48.282038,4.9769475 48.249744,6.3324025 47.158377,7.4514495 Z" /></svg>
