<?xml version="1.0" encoding="UTF-8" standalone="no"?>
<svg
   id="Carnegie_Mellon_University"
   viewBox="0 0 200.68 17"
   version="1.1"
   sodipodi:docname="cmu-nbd-wordmark-horizontal-r3.svg"
   width="200.67999"
   height="17"
   xml:space="preserve"
   inkscape:version="1.2.1 (9c6d41e, 2022-07-14)"
   inkscape:export-filename="cmu-banner-inkscapepng-8.png"
   inkscape:export-xdpi="800.09998"
   inkscape:export-ydpi="800.09998"
   xmlns:inkscape="http://www.inkscape.org/namespaces/inkscape"
   xmlns:sodipodi="http://sodipodi.sourceforge.net/DTD/sodipodi-0.dtd"
   xmlns:xlink="http://www.w3.org/1999/xlink"
   xmlns="http://www.w3.org/2000/svg"
   xmlns:svg="http://www.w3.org/2000/svg"><sodipodi:namedview
     id="namedview2257"
     pagecolor="#ffffff"
     bordercolor="#000000"
     borderopacity="0.25"
     inkscape:showpageshadow="2"
     inkscape:pageopacity="0.0"
     inkscape:pagecheckerboard="false"
     inkscape:deskcolor="#d1d1d1"
     showgrid="false"
     inkscape:zoom="2.9340766"
     inkscape:cx="71.402363"
     inkscape:cy="6.9868661"
     inkscape:window-width="1440"
     inkscape:window-height="831"
     inkscape:window-x="0"
     inkscape:window-y="25"
     inkscape:window-maximized="0"
     inkscape:current-layer="Carnegie_Mellon_University" /><defs
     id="defs2202"><color-profile
       name="_43S425CA"
       xlink:href="file:///Library/ColorSync/Profiles/Displays/43S425CA-D38273AF-E01B-DC11-0857-D6964E3302DB.icc"
       id="color-profile8184" /><color-profile
       name="Black---White"
       xlink:href="file:///Library/ColorSync/Profiles/Black%20&amp;%20White.icc"
       id="color-profile8186" /><rect
       x="29.871523"
       y="6.5507722"
       width="58.607574"
       height="26.552464"
       id="rect15012" /><rect
       x="31.705738"
       y="5.9393668"
       width="53.279613"
       height="26.727152"
       id="rect14956" /><style
       id="style2200">.cls-1{fill:#c41230;}</style></defs><rect
     style="fill:#ffffff;fill-opacity:1;stroke-width:0.712501"
     id="rect1857"
     width="205.11551"
     height="21.901928"
     x="-2.1330338"
     y="-1.8960305" /><polygon
     class="cls-1"
     points="40.65,4.09 39.96,4.09 39.96,3.72 42.43,3.72 42.43,9.05 43.32,9.05 43.32,9.4 39.76,9.4 39.76,9.05 40.65,9.05 "
     id="polygon2204"
     transform="matrix(0.36152122,0,0,0.36152122,34.577682,11.78008)" /><path
     class="cls-1"
     d="m 37.231249,11.87769 h -0.115687 c -0.0037,0.09761 -0.05785,0.140993 -0.155455,0.140993 -0.198837,0 -0.488053,-0.242219 -0.827883,-0.242219 -0.968877,0.0037 -1.554542,0.958031 -1.554542,1.79676 0,0.83873 0.556743,1.681074 1.493083,1.681074 0.567588,0 0.77727,-0.267526 0.92911,-0.267526 0.09761,0 0.115687,0.08676 0.115687,0.195221 h 0.126532 v -1.156867 h -0.126532 l -0.02892,0.159069 c -0.06507,0.383213 -0.361522,0.947186 -0.972493,0.947186 -0.538666,0 -0.744733,-0.466362 -0.744733,-1.612385 0,-1.203865 0.285602,-1.608769 0.762811,-1.608769 0.538666,0 0.907418,0.603741 0.983337,1.084563 h 0.115687 z"
     id="path2206"
     style="stroke-width:0.361521" /><path
     class="cls-1"
     d="m 38.887016,14.625252 c -0.01085,0.245833 -0.148224,0.448285 -0.368752,0.448285 -0.318139,0 -0.328985,-0.267525 -0.328985,-0.469977 0,-0.245835 0.02892,-0.408519 0.328985,-0.441055 l 0.368752,-0.03615 v 0.502515 z m 0.849574,0.155453 c 0,0.119302 -0.07953,0.260295 -0.133763,0.260295 -0.08315,0 -0.101226,-0.08676 -0.101226,-0.231372 v -1.070104 c 0,-0.531436 -0.498899,-0.661583 -0.976107,-0.661583 -0.477208,0 -0.806192,0.227758 -0.806192,0.488053 0,0.162685 0.09399,0.303678 0.303678,0.303678 0.177145,0 0.285601,-0.115687 0.285601,-0.278372 0,-0.238604 -0.245834,-0.238604 -0.245834,-0.245834 0,-0.104841 0.274757,-0.140993 0.433825,-0.140993 0.350676,0 0.394059,0.130147 0.394059,0.408519 v 0.390443 l -0.455517,0.03615 c -0.42298,0.03254 -0.885727,0.144609 -0.885727,0.629048 0,0.404903 0.361521,0.567588 0.723043,0.567588 0.18076,0 0.502514,-0.06869 0.62543,-0.292832 0.08315,0.195221 0.256681,0.292832 0.466363,0.292832 0.303678,0 0.4989,-0.18076 0.4989,-0.455516 h -0.119302 z"
     id="path2208"
     style="stroke-width:0.361521" /><polygon
     class="cls-1"
     points="132.25,4.07 131.36,4.07 131.36,3.7 134.03,3.7 134.03,9.03 134.92,9.03 134.92,9.38 131.36,9.38 131.36,9.03 132.25,9.03 "
     id="polygon2210"
     transform="matrix(0.36152122,0,0,0.36152122,34.577682,11.78008)" /><path
     class="cls-1"
     d="m 55.119317,14.111891 0.770041,-2.208895 h 1.062872 v 0.130148 h -0.307293 v 3.018702 h 0.303678 v 0.130147 H 55.66883 v -0.130147 h 0.310908 v -2.982549 h -0.01085 l -1.084561,3.109081 H 54.757795 L 53.65154,12.011453 h -0.01085 v 2.642719 c 0,0.375983 0.09761,0.397674 0.350675,0.397674 h 0.01446 v 0.130147 h -0.806192 v -0.130147 0 c 0.267526,0 0.314524,-0.155454 0.314524,-0.35429 v -2.660797 h -0.314524 v -0.133763 h 1.167714 z"
     id="path2212"
     style="stroke-width:0.361521" /><path
     class="cls-1"
     d="m 57.696964,13.927515 v -0.314523 c 0,-0.310909 0.133763,-0.408519 0.292833,-0.408519 0.224142,0 0.292832,0.151838 0.292832,0.408519 v 0.314523 z m 0,0.126533 h 1.2834 c -0.0037,-0.502515 -0.469978,-0.986953 -0.95803,-0.976107 -0.549513,0 -1.023106,0.473592 -1.023106,1.102638 0,0.629049 0.441056,1.055643 1.037566,1.055643 0.59651,0 0.856806,-0.354291 0.958032,-0.813422 h -0.126534 c -0.101226,0.433825 -0.328984,0.679659 -0.69412,0.679659 -0.433825,0 -0.480823,-0.33983 -0.480823,-0.654353 v -0.390443 z"
     id="path2214"
     style="stroke-width:0.361521" /><path
     class="cls-1"
     d="m 77.038351,13.920285 v -0.314524 c 0,-0.310908 0.133761,-0.408519 0.29283,-0.408519 0.224142,0 0.292834,0.151839 0.292834,0.408519 v 0.314524 z m 0,0.126532 h 1.283399 c -0.0037,-0.502514 -0.46998,-0.986953 -0.958033,-0.976107 -0.549513,0 -1.023106,0.473593 -1.023106,1.10264 0,0.629047 0.441056,1.055641 1.037567,1.055641 0.59651,0 0.856808,-0.35429 0.958031,-0.813422 h -0.12653 c -0.10123,0.433825 -0.328984,0.67966 -0.694122,0.67966 -0.433826,0 -0.480823,-0.33983 -0.480823,-0.654354 v -0.390442 z"
     id="path2216"
     style="stroke-width:0.361521" /><polygon
     class="cls-1"
     points="71.08,9.04 70.19,9.04 70.19,0.36 67.52,0.36 67.52,0.68 68.41,0.68 68.41,9.04 67.52,9.04 67.52,9.4 71.08,9.4 "
     id="polygon2218"
     transform="matrix(0.36152122,0,0,0.36152122,34.577682,11.78008)" /><polygon
     class="cls-1"
     points="74.88,9.04 73.99,9.04 73.99,0.36 71.33,0.36 71.33,0.68 72.22,0.68 72.22,9.04 71.33,9.04 71.33,9.4 74.88,9.4 "
     id="polygon2220"
     transform="matrix(0.36152122,0,0,0.36152122,34.577682,11.78008)" /><path
     class="cls-1"
     d="m 63.127013,14.614406 c 0,0.350675 -0.144609,0.495283 -0.383213,0.495283 -0.238604,0 -0.383213,-0.144608 -0.383213,-0.495283 v -0.914649 c 0,-0.350676 0.144609,-0.495284 0.383213,-0.495284 0.238604,0 0.383213,0.144608 0.383213,0.495284 z m 0.726657,-0.459132 c 0,-0.636278 -0.491669,-1.080949 -1.106255,-1.080949 -0.614585,0 -1.106254,0.441057 -1.106254,1.080949 0,0.639892 0.495284,1.080948 1.106254,1.080948 0.610971,0 1.106255,-0.441056 1.106255,-1.080948"
     id="path2222"
     style="stroke-width:0.361521" /><path
     class="cls-1"
     d="m 67.194125,12.015068 h 0.325371 v 2.067902 c 0,0.723042 0.4989,1.160483 1.258092,1.160483 0.856808,0 1.229172,-0.451903 1.229172,-1.135178 v -1.767838 c 0,-0.27114 0.07592,-0.321754 0.242219,-0.321754 h 0.094 V 11.89215 h -0.817041 v 0.122918 h 0.05785 c 0.238603,0 0.27114,0.0723 0.27114,0.343445 v 1.796761 c 0,0.632662 -0.394059,0.921878 -0.791729,0.921878 -0.679663,0 -0.813424,-0.455516 -0.856808,-1.052026 v -2.010058 h 0.303682 V 11.89215 h -1.315941 z"
     id="path2224"
     style="stroke-width:0.361521" /><path
     class="cls-1"
     d="m 75.259665,15.225376 h 0.126532 l 0.690505,-1.63046 c 0.140996,-0.303678 0.2133,-0.343445 0.321754,-0.347061 h 0.04339 v -0.126532 h -0.726658 v 0.130148 h 0.08676 c 0.133766,0 0.195223,-0.0072 0.195223,0.112072 0,0.07592 -0.02532,0.148223 -0.07953,0.281985 l -0.318137,0.744734 -0.506129,-1.138791 h 0.256679 V 13.121323 H 74.18234 v 0.130148 h 0.220525 z"
     id="path2226"
     style="stroke-width:0.361521" /><path
     class="cls-1"
     d="m 80.447492,15.225376 h 0.112071 c 0.02167,-0.07592 0.0723,-0.112071 0.162686,-0.112071 0.119301,0 0.263909,0.112071 0.527824,0.112071 0.441055,0 0.744733,-0.383212 0.744733,-0.762809 0,-0.567589 -0.390444,-0.610971 -0.889341,-0.679661 -0.260297,-0.03615 -0.408523,-0.07592 -0.408523,-0.278371 0,-0.220528 0.19161,-0.310908 0.441059,-0.310908 0.350675,0 0.484433,0.231374 0.600121,0.535052 h 0.10846 v -0.661584 h -0.104845 c 0,0.05423 -0.04695,0.101226 -0.137375,0.101226 -0.148223,0 -0.271142,-0.101226 -0.484437,-0.101226 -0.466363,0 -0.694123,0.394057 -0.694123,0.694121 0,0.600124 0.455515,0.650738 0.809806,0.694121 0.336218,0.04339 0.45552,0.06507 0.45552,0.27837 0,0.245835 -0.20607,0.357907 -0.45552,0.357907 -0.354291,0 -0.596506,-0.307294 -0.679657,-0.647123 H 80.44388 v 0.780885 z"
     id="path2228"
     style="stroke-width:0.361521" /><polygon
     class="cls-1"
     points="107.31,4.07 106.42,4.07 106.42,3.7 109.08,3.7 109.08,9.03 109.97,9.03 109.97,9.38 106.42,9.38 106.42,9.03 107.31,9.03 "
     id="polygon2230"
     transform="matrix(0.36152122,0,0,0.36152122,34.577682,11.78008)" /><path
     class="cls-1"
     d="m 73.372526,12.4742 c 0,0.177145 0.140991,0.321754 0.321753,0.321754 0.180759,0 0.321755,-0.140994 0.321755,-0.321754 0,-0.180761 -0.140996,-0.321754 -0.321755,-0.321754 -0.180762,0 -0.321753,0.140993 -0.321753,0.321754"
     id="path2232"
     style="stroke-width:0.361521" /><path
     class="cls-1"
     d="m 82.388865,12.4742 c 0,0.177145 0.140989,0.321754 0.321751,0.321754 0.180761,0 0.321756,-0.140994 0.321756,-0.321754 0,-0.180761 -0.140995,-0.321754 -0.321756,-0.321754 -0.180762,0 -0.321751,0.140993 -0.321751,0.321754"
     id="path2234"
     style="stroke-width:0.361521" /><path
     class="cls-1"
     d="m 45.336554,13.9239 v -0.314524 c 0,-0.310907 0.133763,-0.408519 0.292832,-0.408519 0.224144,0 0.292832,0.151839 0.292832,0.408519 V 13.9239 Z m 0,0.126533 h 1.2834 c -0.0037,-0.502515 -0.469977,-0.986954 -0.95803,-0.976108 -0.549513,0 -1.023106,0.473593 -1.023106,1.10264 0,0.629047 0.441056,1.055642 1.037565,1.055642 0.596511,0 0.856806,-0.354291 0.958032,-0.813422 h -0.126533 c -0.101225,0.433825 -0.328984,0.679659 -0.69412,0.679659 -0.433826,0 -0.480823,-0.33983 -0.480823,-0.654353 v -0.390443 z"
     id="path2236"
     style="stroke-width:0.361521" /><path
     class="cls-1"
     d="m 50.95821,13.9239 v -0.314524 c 0,-0.310907 0.133761,-0.408519 0.292831,-0.408519 0.1663,0 0.292832,0.09761 0.292832,0.408519 V 13.9239 Z m 0,0.126533 h 1.283399 c -0.0037,-0.502515 -0.469978,-0.986954 -0.958031,-0.976108 -0.549512,0 -1.023105,0.473593 -1.023105,1.10264 0,0.629047 0.441056,1.055642 1.037566,1.055642 0.59651,0 0.856806,-0.354291 0.958032,-0.813422 h -0.126533 c -0.101227,0.433825 -0.328984,0.679659 -0.694121,0.679659 -0.433825,0 -0.480823,-0.33983 -0.480823,-0.654353 v -0.390443 z"
     id="path2238"
     style="stroke-width:0.361521" /><path
     class="cls-1"
     d="m 72.638636,15.044615 v -1.258093 c 0,-0.502515 -0.2133,-0.737503 -0.657967,-0.737503 -0.310912,0 -0.629049,0.18076 -0.75558,0.448285 v 0 -0.375981 h -0.965262 v 0.126532 h 0.321754 v 1.79676 h -0.321754 v 0.126534 h 1.240018 v -0.126534 h -0.274756 v -1.229171 c 0.03976,-0.173531 0.260293,-0.571205 0.513359,-0.571205 0.169916,0 0.253063,0.05785 0.253063,0.372368 v 1.428008 h -0.26391 v 0.126534 h 1.229172 v -0.126534 h -0.321754 z"
     id="path2240"
     style="stroke-width:0.361521" /><path
     class="cls-1"
     d="m 64.815315,13.132168 v 0.375983 0 c 0.126531,-0.271142 0.441056,-0.448287 0.75558,-0.448287 0.441055,0 0.657968,0.234989 0.657968,0.737504 v 1.258094 h 0.321755 v 0.126531 h -1.229173 v -0.126531 h 0.26391 v -1.428009 c 0,-0.310909 -0.08676,-0.372367 -0.253063,-0.372367 -0.253067,0 -0.473592,0.397673 -0.513359,0.571203 v 1.229173 c 0,0 0.274757,0 0.274757,0 v 0.126531 h -1.24002 v -0.126531 h 0.321754 V 13.255086 H 63.85367 v -0.126533 h 0.965263 z"
     id="path2242"
     style="stroke-width:0.361521" /><path
     class="cls-1"
     d="m 44.313449,15.051846 v -1.258093 c 0,-0.502515 -0.213298,-0.737504 -0.657969,-0.737504 -0.310908,0 -0.629046,0.18076 -0.755579,0.448286 v 0 -0.375982 h -0.965262 v 0.126533 h 0.321754 v 1.79676 h -0.321754 v 0.126532 h 1.240018 v -0.126532 h -0.274756 v -1.229172 c 0.03977,-0.17353 0.260295,-0.571203 0.51336,-0.571203 0.169915,0 0.253065,0.05785 0.253065,0.372367 v 1.428008 h -0.263911 v 0.126532 h 1.229172 v -0.126532 h -0.321754 z"
     id="path2244"
     style="stroke-width:0.361521" /><path
     class="cls-1"
     d="m 49.277135,12.48866 c 0,0.177146 0.140993,0.321755 0.321754,0.321755 0.18076,0 0.321754,-0.140994 0.321754,-0.321755 0,-0.18076 -0.140994,-0.321753 -0.321754,-0.321753 -0.180761,0 -0.321754,0.140993 -0.321754,0.321753"
     id="path2246"
     style="stroke-width:0.361521" /><path
     class="cls-1"
     d="m 86.155913,13.117708 v 0.133763 c 0.198834,0 0.285606,0.01808 0.285606,0.108456 0,0.07592 -0.02533,0.148224 -0.07954,0.281986 l -0.318143,0.744734 -0.506126,-1.135176 h 0.263907 V 13.117708 H 84.19647 v -0.997799 h -0.08315 c 0,0.491669 -0.336215,1.001414 -0.806189,1.001414 v 0.133763 h 0.245834 v 1.438854 c 0,0.441056 0.383208,0.531436 0.513354,0.531436 0.285606,0 0.473596,-0.115687 0.618206,-0.357905 L 84.5833,14.813241 c -0.05425,0.08315 -0.130153,0.195222 -0.245841,0.195222 -0.09399,0 -0.140989,-0.06507 -0.140989,-0.220528 V 13.25147 h 0.650736 l 0.849576,1.96306 -0.292829,0.69412 v 0 c 0,0 0,0 0,0 v 0 c 0,0 -0.0181,0.02169 -0.03621,0.02169 -0.0181,0 -0.02891,-0.01085 -0.03614,-0.02531 0,0 0,0 0,0 -0.03614,-0.133763 -0.159068,-0.231374 -0.307292,-0.231374 -0.177147,0 -0.321758,0.140994 -0.321758,0.321755 0,0.126531 0.07231,0.231372 0.173533,0.285601 0,0 0,0 0,0 0,0 0.0072,0 0.01087,0.0037 0.0072,0 0.01087,0.0072 0.0181,0.0072 0.03614,0.01446 0.07592,0.02531 0.115682,0.02531 0.271141,0.02169 0.408523,-0.177145 0.502518,-0.379598 0.02169,-0.04699 0.03973,-0.094 0.05783,-0.137378 0.03973,-0.09761 0.112067,-0.267526 0.195219,-0.466363 v 0 c 0,0 0.07954,-0.187991 0.07954,-0.187991 v 0 c 0,0 0.65435,-1.547311 0.65435,-1.547311 0.140996,-0.303677 0.195225,-0.343444 0.361523,-0.343444 v 0 -0.133763 h -0.726659 z"
     id="path2248"
     style="stroke-width:0.361521" /><path
     class="cls-1"
     d="m 41.468277,13.052634 c -0.296448,0 -0.527821,0.206067 -0.614587,0.43744 h -0.01085 v -0.354291 h -0.954416 v 0.130149 h 0.321754 v 1.78953 h -0.321754 v 0.126531 h 1.391857 v -0.126531 h -0.426596 v -1.001414 c 0,-0.300063 0.07953,-0.607356 0.274756,-0.773656 0.01085,-0.0072 0.02531,-0.01085 0.03977,-0.0037 0.01446,0.0072 0.02169,0.02531 0.02169,0.03977 v 0 c -0.01446,0.03616 -0.02169,0.07953 -0.02531,0.133763 -0.0072,0.169916 0.133762,0.303678 0.318139,0.303678 0.224143,0 0.354291,-0.162685 0.354291,-0.33983 0,-0.224143 -0.148224,-0.357906 -0.368752,-0.357906 z"
     id="path2250"
     style="stroke-width:0.361521" /><path
     class="cls-1"
     d="m 48.478173,13.204473 c 0,0 0.02169,-0.0072 0.02892,0 0.0072,0.0072 0.0072,0.01446 0,0.02531 v 0 c -0.02892,0.047 -0.03977,0.108457 -0.01808,0.169916 0.02169,0.06146 0.07592,0.112071 0.140993,0.126532 0.133763,0.02892 0.249449,-0.06869 0.249449,-0.195222 0,-0.08315 -0.05062,-0.144608 -0.108456,-0.18076 -0.05785,-0.03615 -0.130148,-0.05423 -0.206068,-0.05423 -0.122916,0 -0.249449,0.06507 -0.343444,0.144608 0,0 0,0 0,0 -0.02169,-0.01446 -0.04339,-0.02892 -0.06507,-0.04339 -0.126533,-0.07592 -0.296448,-0.122916 -0.516975,-0.122916 -0.390443,0 -0.809808,0.256679 -0.809808,0.679659 0,0.25668 0.140993,0.455517 0.386828,0.567589 v 0.01085 c -0.18076,0.02169 -0.466363,0.148224 -0.466363,0.535052 0,0.231374 0.108456,0.408519 0.303677,0.466362 v 0.01085 c -0.18799,0.05062 -0.401288,0.238604 -0.401288,0.462747 0,0.343445 0.404904,0.610971 0.92188,0.610971 0.647123,0 1.070102,-0.437441 1.070102,-1.005029 0,-0.451902 -0.224143,-0.657968 -0.679659,-0.647123 h -0.773656 c -0.115687,0 -0.195221,-0.0037 -0.195221,-0.130148 0,-0.115687 0.177146,-0.242218 0.354291,-0.242218 0.03254,0 0.08315,0.02531 0.09399,0.02892 0.05785,0.01808 0.115686,0.02892 0.191606,0.02892 0.401289,0 0.827884,-0.227759 0.827884,-0.668814 0,-0.137378 -0.05785,-0.32537 -0.169915,-0.441056 -0.0072,-0.0072 -0.0072,-0.01808 0,-0.02531 0.04339,-0.03615 0.09761,-0.06507 0.122917,-0.07954 0.02169,-0.01085 0.03615,-0.01808 0.05423,-0.02531 v 0 z m -0.618201,2.140206 c 0.466362,0 0.589279,0.01808 0.589279,0.303677 0,0.33983 -0.415749,0.650739 -0.885726,0.650739 -0.419365,0 -0.621817,-0.256681 -0.629047,-0.480823 0,-0.206068 0.101226,-0.339831 0.227758,-0.473593 z m 0.07953,-1.590694 c 0,0.542282 -0.126532,0.560358 -0.292831,0.560358 -0.187992,0 -0.285602,-0.03615 -0.285602,-0.574819 0,-0.375981 0.04339,-0.538667 0.285602,-0.538667 0.220528,0 0.289217,0.01446 0.292831,0.549513 v 0 z"
     id="path2252"
     style="stroke-width:0.361521" /><path
     class="cls-1"
     d="m 79.95221,13.034558 c -0.296447,0 -0.527819,0.206067 -0.614584,0.437441 h -0.01086 v -0.354291 h -0.954414 v 0.130147 h 0.321754 v 1.78953 h -0.321754 v 0.126533 h 1.391852 v -0.126533 h -0.426591 v -1.001414 c 0,-0.300062 0.07953,-0.60374 0.274753,-0.773654 0.01086,-0.0072 0.02532,-0.01085 0.03976,-0.0037 0.01445,0.0072 0.02167,0.02531 0.02167,0.03977 v 0 c -0.01086,0.03615 -0.02167,0.07953 -0.02532,0.133763 -0.0072,0.169915 0.133762,0.303678 0.318137,0.303678 0.224143,0 0.354291,-0.162684 0.354291,-0.33983 0,-0.224143 -0.148221,-0.357905 -0.368751,-0.357905 z"
     id="path2254"
     style="stroke-width:0.361521" /><g
     id="g14900"
     transform="matrix(0.36152122,0,0,0.36152122,17.512259,3.3779805)"><path
       sodipodi:type="star"
       style="fill:#c00000;fill-opacity:1"
       id="path13560"
       inkscape:flatsided="true"
       sodipodi:sides="3"
       sodipodi:cx="35.986362"
       sodipodi:cy="-3.9946251"
       sodipodi:r1="2.9178131"
       sodipodi:r2="1.4589067"
       sodipodi:arg1="1.5707963"
       sodipodi:arg2="2.6179939"
       inkscape:rounded="0"
       inkscape:randomized="0"
       d="m 35.986363,-1.076812 -2.526901,-4.3767196 5.053801,-1e-7 z"
       inkscape:transform-center-y="-1.1810197"
       transform="matrix(1.79042,0,0,-1.6190476,-37.701451,-0.49291857)"
       inkscape:transform-center-x="1.5662471e-06" /><path
       sodipodi:type="star"
       style="fill:#ed7d31;fill-opacity:1"
       id="path13590"
       inkscape:flatsided="true"
       sodipodi:sides="3"
       sodipodi:cx="11.18495"
       sodipodi:cy="-4.4461913"
       sodipodi:r1="4.867486"
       sodipodi:r2="2.433743"
       sodipodi:arg1="0.042830933"
       sodipodi:arg2="1.0900285"
       inkscape:rounded="0"
       inkscape:randomized="0"
       d="M 16.047972,-4.2377761 8.572946,-0.33889833 8.9339318,-8.7618995 Z"
       inkscape:transform-center-x="-1.2667229"
       inkscape:transform-center-y="-0.11715813"
       transform="matrix(1.1254669,0,0,1.1242774,1.7727202,5.4308902)" /><path
       sodipodi:type="star"
       style="fill:#ffc000;fill-opacity:1"
       id="path13594"
       inkscape:flatsided="true"
       sodipodi:sides="3"
       sodipodi:cx="16.306505"
       sodipodi:cy="13.677081"
       sodipodi:r1="2.0229681"
       sodipodi:r2="1.011484"
       sodipodi:arg1="1.7840008"
       sodipodi:arg2="2.8311984"
       inkscape:rounded="0"
       inkscape:randomized="0"
       d="m 15.87846,15.654245 -1.070206,-3.336444 3.424548,0.741397 z"
       inkscape:transform-center-x="-0.47315066"
       inkscape:transform-center-y="0.68299272"
       transform="matrix(2.2107499,0,0,2.2107499,-23.697519,-15.301056)" /><rect
       style="fill:#c00000;fill-opacity:1;stroke-width:1.12964"
       id="rect14254"
       width="3.6423173"
       height="21.597403"
       x="24.967916"
       y="6.4324369"
       ry="1.8404372" /><rect
       style="fill:#ed7d31;fill-opacity:1;stroke-width:1.46101"
       id="rect14254-9"
       width="4.1040211"
       height="32.062649"
       x="10.587157"
       y="6.9313712"
       ry="2.2942863"
       transform="matrix(0.90791783,-0.41914821,0.4194638,0.90777206,0,0)" /><rect
       style="fill:#ffc000;fill-opacity:1;stroke-width:1.13391"
       id="rect14559"
       width="3.591017"
       height="21.905205"
       x="-4.2314782"
       y="18.85951"
       ry="1.8699564"
       transform="rotate(-47.472218)" /><ellipse
       style="fill:#ffffff;fill-opacity:1;stroke-width:0.883883"
       id="path14891"
       cx="27.10289"
       cy="28.194729"
       rx="1.256856"
       ry="1.2825061" /></g><text
     xml:space="preserve"
     style="font-style:normal;font-variant:normal;font-weight:bold;font-stretch:normal;font-size:3.13318px;font-family:Arial;-inkscape-font-specification:'Arial, Bold';font-variant-ligatures:normal;font-variant-caps:normal;font-variant-numeric:normal;font-variant-east-asian:normal;fill:#040404;stroke-width:0.361521"
     x="28.161652"
     y="9.0227385"
     id="text1367"><tspan
       sodipodi:role="line"
       id="tspan1365"
       x="28.161652"
       y="9.0227385"
       style="stroke-width:0.361521">National</tspan></text><text
     xml:space="preserve"
     style="font-style:normal;font-variant:normal;font-weight:bold;font-stretch:normal;font-size:3.13318px;font-family:Arial;-inkscape-font-specification:'Arial, Bold';font-variant-ligatures:normal;font-variant-caps:normal;font-variant-numeric:normal;font-variant-east-asian:normal;fill:#040404;stroke-width:0.361521"
     x="28.069164"
     y="11.588785"
     id="text1367-9"><tspan
       sodipodi:role="line"
       id="tspan1365-7"
       x="28.069164"
       y="11.588785"
       style="stroke-width:0.361521">Biomechanics</tspan></text><text
     xml:space="preserve"
     style="font-style:normal;font-variant:normal;font-weight:bold;font-stretch:normal;font-size:3.13318px;font-family:Arial;-inkscape-font-specification:'Arial, Bold';font-variant-ligatures:normal;font-variant-caps:normal;font-variant-numeric:normal;font-variant-east-asian:normal;fill:#040404;stroke-width:0.361521"
     x="28.066872"
     y="14.10841"
     id="text1367-9-9"><tspan
       sodipodi:role="line"
       id="tspan1365-7-9"
       x="28.066872"
       y="14.10841"
       style="stroke-width:0.361521">Day</tspan><tspan
       sodipodi:role="line"
       x="28.066872"
       y="18.024885"
       id="tspan1527"
       style="stroke-width:0.361521" /></text></svg>
