<?xml version="1.0" encoding="UTF-8" standalone="no"?>
<svg
   id="Carnegie_Mellon_University"
   viewBox="0 0 200.68 44"
   version="1.1"
   sodipodi:docname="cmu-banner-2.svg"
   width="200.67999"
   height="44"
   xml:space="preserve"
   inkscape:version="1.2.1 (9c6d41e, 2022-07-14)"
   inkscape:export-filename="cmu-banner-2.png"
   inkscape:export-xdpi="800.09998"
   inkscape:export-ydpi="800.09998"
   xmlns:inkscape="http://www.inkscape.org/namespaces/inkscape"
   xmlns:sodipodi="http://sodipodi.sourceforge.net/DTD/sodipodi-0.dtd"
   xmlns:xlink="http://www.w3.org/1999/xlink"
   xmlns="http://www.w3.org/2000/svg"
   xmlns:svg="http://www.w3.org/2000/svg"><sodipodi:namedview
     id="namedview2257"
     pagecolor="#ffffff"
     bordercolor="#000000"
     borderopacity="0.25"
     inkscape:showpageshadow="2"
     inkscape:pageopacity="0.0"
     inkscape:pagecheckerboard="false"
     inkscape:deskcolor="#d1d1d1"
     showgrid="false"
     inkscape:zoom="2.8798157"
     inkscape:cx="83.512289"
     inkscape:cy="3.6460667"
     inkscape:window-width="1440"
     inkscape:window-height="831"
     inkscape:window-x="0"
     inkscape:window-y="25"
     inkscape:window-maximized="0"
     inkscape:current-layer="Carnegie_Mellon_University" /><defs
     id="defs2202"><linearGradient
       inkscape:collect="always"
       id="linearGradient13246"><stop
         style="stop-color:#f4b943;stop-opacity:1;"
         offset="0"
         id="stop13242" /><stop
         style="stop-color:#fca42a;stop-opacity:1;"
         offset="1"
         id="stop13244" /></linearGradient><linearGradient
       inkscape:collect="always"
       id="linearGradient10823"><stop
         style="stop-color:#d36229;stop-opacity:1;"
         offset="0"
         id="stop10819" /><stop
         style="stop-color:#faa22a;stop-opacity:1;"
         offset="1"
         id="stop10821" /></linearGradient><linearGradient
       inkscape:collect="always"
       id="linearGradient4536"><stop
         style="stop-color:#fea82a;stop-opacity:1;"
         offset="0"
         id="stop4532" /><stop
         style="stop-color:#d36229;stop-opacity:1;"
         offset="1"
         id="stop4534" /></linearGradient><linearGradient
       inkscape:collect="always"
       id="linearGradient3420"><stop
         style="stop-color:#eaa03c;stop-opacity:1;"
         offset="0"
         id="stop3418" /><stop
         style="stop-color:#d26129;stop-opacity:1;"
         offset="1"
         id="stop3416" /></linearGradient><inkscape:path-effect
       effect="spiro"
       id="path-effect2425"
       is_visible="true"
       lpeversion="1" /><inkscape:path-effect
       effect="spiro"
       id="path-effect2421"
       is_visible="true"
       lpeversion="1" /><inkscape:path-effect
       effect="spiro"
       id="path-effect2417"
       is_visible="true"
       lpeversion="1" /><inkscape:path-effect
       effect="spiro"
       id="path-effect2413"
       is_visible="true"
       lpeversion="1" /><inkscape:path-effect
       effect="spiro"
       id="path-effect2409"
       is_visible="true"
       lpeversion="1" /><color-profile
       name="_43S425CA"
       xlink:href="file:///Library/ColorSync/Profiles/Displays/43S425CA-D38273AF-E01B-DC11-0857-D6964E3302DB.icc"
       id="color-profile15103" /><color-profile
       name="Black---White"
       xlink:href="file:///Library/ColorSync/Profiles/Black%20&amp;%20White.icc"
       id="color-profile15105" /><rect
       x="29.871523"
       y="6.5507722"
       width="58.607574"
       height="26.552464"
       id="rect15012" /><rect
       x="31.705738"
       y="5.9393668"
       width="53.279613"
       height="26.727152"
       id="rect14956" /><style
       id="style2200">.cls-1{fill:#c41230;}</style><linearGradient
       inkscape:collect="always"
       xlink:href="#linearGradient3420"
       id="linearGradient3422"
       x1="19.691639"
       y1="-30.644394"
       x2="52.951381"
       y2="-30.644394"
       gradientUnits="userSpaceOnUse"
       gradientTransform="matrix(-1.2799317,0.33638869,1.1025561,1.1788643,84.661984,39.152626)" /><linearGradient
       inkscape:collect="always"
       xlink:href="#linearGradient4536"
       id="linearGradient4538"
       x1="89.847178"
       y1="-31.541381"
       x2="144.96517"
       y2="-31.541381"
       gradientUnits="userSpaceOnUse"
       gradientTransform="matrix(1,0,0,0.85345212,52.23311,58.61442)" /><linearGradient
       inkscape:collect="always"
       xlink:href="#linearGradient10823"
       id="linearGradient10825"
       x1="106.25395"
       y1="-52.962405"
       x2="145.41793"
       y2="-52.962405"
       gradientUnits="userSpaceOnUse"
       gradientTransform="matrix(1.5231171,0,0,1.5355158,-106.97535,99.547313)" /><linearGradient
       inkscape:collect="always"
       xlink:href="#linearGradient13246"
       id="linearGradient13248"
       x1="58.245005"
       y1="-19.999111"
       x2="70.164893"
       y2="-19.999111"
       gradientUnits="userSpaceOnUse"
       gradientTransform="matrix(1.844814,0,0,1.4805968,-80.80544,60.656443)" /><inkscape:path-effect
       effect="spiro"
       id="path-effect2417-9"
       is_visible="true"
       lpeversion="1" /><linearGradient
       inkscape:collect="always"
       xlink:href="#linearGradient13246"
       id="linearGradient14943"
       gradientUnits="userSpaceOnUse"
       gradientTransform="matrix(2.8056105,0,0,1.5850362,-38.993281,40.982343)"
       x1="58.245005"
       y1="-19.999111"
       x2="70.164893"
       y2="-19.999111" /><inkscape:path-effect
       effect="spiro"
       id="path-effect2409-3"
       is_visible="true"
       lpeversion="1" /><linearGradient
       inkscape:collect="always"
       xlink:href="#linearGradient3420"
       id="linearGradient15023"
       gradientUnits="userSpaceOnUse"
       gradientTransform="matrix(1.2799317,0.33638869,-1.1025561,1.1788643,125.15936,34.37017)"
       x1="19.691639"
       y1="-30.644394"
       x2="52.951381"
       y2="-30.644394" /></defs><rect
     style="fill:#ffffff;fill-opacity:1;stroke-width:1.07617"
     id="rect1857"
     width="206.9043"
     height="49.533783"
     x="-2.1330338"
     y="-1.8960305" /><path
     style="fill:url(#linearGradient3422);fill-opacity:1;stroke-width:1.37104"
     d="M -0.18054702,2.8252197 C -1.4733042,3.3619215 -2.611325,4.2149709 -3.6547759,5.1479662 -4.6982267,6.0809615 -5.6609323,7.1010618 -6.7012301,8.0375715 -8.7483273,9.8804346 -11.09426,11.392553 -13.624455,12.481068 c -0.880204,0.378672 -1.786613,0.708539 -2.610044,1.198553 -0.82343,0.490014 -1.573141,1.163914 -1.955954,2.042324 -0.231478,0.531153 -0.319911,1.120014 -0.285363,1.698384 0.03455,0.578371 0.189912,1.146423 0.426367,1.67538 0.472908,1.057913 1.2573,1.946056 2.098184,2.743388 2.855828,2.707916 6.5903991,4.573634 10.5184889,4.815857 3.155357,0.194573 6.28414561,-0.639244 9.4441121,-0.732778 3.2739617,-0.09691 6.54678,0.601894 9.811437,0.33688 2.371231,-0.192489 4.711428,-0.905428 6.730722,-2.163299 2.019293,-1.257872 3.707699,-3.068904 4.72329,-5.220267 1.185886,-2.512104 1.403999,-5.533978 0.284782,-8.076485 C 25.001959,9.5277512 24.118888,8.3944726 22.996736,7.5759235 21.874584,6.7573744 20.513343,6.2603129 19.125423,6.2062218 17.434362,6.1403165 15.794406,6.7135523 14.152441,7.1234056 13.331458,7.3283322 12.495777,7.4941641 11.649958,7.5186191 10.804139,7.543074 9.943984,7.4215538 9.1731338,7.0725585 8.0315037,6.5556961 7.1692713,5.5885015 6.3101265,4.676177 5.4509817,3.7638524 4.5076927,2.8483834 3.3062763,2.4919221 2.1647439,2.1532284 0.91916451,2.3686628 -0.18054702,2.8252197 Z"
     id="path2407"
     inkscape:path-effect="#path-effect2409"
     inkscape:original-d="M -0.18054702,2.8252197 C -1.3426441,2.9348046 -4.5278461,6.301637 -6.7012301,8.0375715 c -2.173383,1.7359358 -4.6156599,2.9638465 -6.9232249,4.4434965 -2.307563,1.47965 -3.044176,2.162099 -4.565998,3.240877 -1.521822,1.078777 1.492615,4.079616 2.239188,6.117152 0.746567,2.037537 7.0121489,3.212088 10.5184889,4.815857 3.50634,1.60377 6.29589708,-0.487003 9.4441121,-0.732778 3.1482128,-0.245775 6.540781,0.226102 9.811437,0.33688 3.270655,0.110774 7.635831,-4.920862 11.454012,-7.383566 C 29.094967,16.412784 21.175698,10.430826 19.125423,6.2062218 17.075146,1.9816176 12.490387,6.7852956 9.1731338,7.0725585 5.855882,7.3598227 5.261717,4.020316 3.3062763,2.4919221 1.350833,0.9635274 0.98154898,2.7156356 -0.18054702,2.8252197 Z" /><path
     style="fill:url(#linearGradient15023);fill-opacity:1;stroke-width:1.37104"
     d="m 210.00189,-1.9572353 c 1.29276,0.5367017 2.43078,1.38975085 3.47423,2.32274617 1.04345,0.93299533 2.00616,1.95309583 3.04646,2.88960603 2.0471,1.8428618 4.39303,3.354981 6.92322,4.443496 0.8802,0.3786727 1.78661,0.7085391 2.61004,1.1985527 0.82344,0.4900137 1.57315,1.1639134 1.95596,2.0423244 0.23148,0.531153 0.31991,1.120014 0.28536,1.698385 -0.0345,0.57837 -0.18991,1.146422 -0.42636,1.675379 -0.47291,1.057914 -1.25731,1.946056 -2.09819,2.743388 -2.85583,2.707915 -6.5904,4.573633 -10.51849,4.815856 -3.15536,0.194573 -6.28414,-0.639244 -9.44411,-0.732778 -3.27396,-0.09691 -6.54678,0.601895 -9.81144,0.33688 -2.37123,-0.192489 -4.71143,-0.905428 -6.73072,-2.163299 -2.01929,-1.257872 -3.7077,-3.068903 -4.72329,-5.220266 -1.18589,-2.512103 -1.404,-5.5339774 -0.28478,-8.0764846 0.55961,-1.2712535 1.44268,-2.4045322 2.56483,-3.2230814 1.12215,-0.8185492 2.48339,-1.3156108 3.87131,-1.369702 1.69106,-0.065905 3.33102,0.5073304 4.97298,0.9171837 0.82099,0.2049266 1.65667,0.3707586 2.50249,0.3952136 0.84581,0.024455 1.70597,-0.097065 2.47682,-0.4460604 1.14163,-0.5168625 2.00386,-1.48405734 2.86301,-2.39638211 0.85914,-0.91232479 1.80243,-1.82779389 3.00385,-2.18425469 1.14153,-0.3386928 2.38711,-0.1232584 3.48682,0.3332976 z"
     id="path2407-6"
     inkscape:path-effect="#path-effect2409-3"
     inkscape:original-d="m 210.00189,-1.9572353 c 1.1621,0.1095849 4.3473,3.4764173 6.52069,5.2123522 2.17338,1.735935 4.61566,2.963846 6.92322,4.443496 2.30756,1.47965 3.04418,2.162099 4.566,3.2408771 1.52182,1.078777 -1.49262,4.079616 -2.23919,6.117152 -0.74657,2.037536 -7.01215,3.212087 -10.51849,4.815856 -3.50634,1.60377 -6.29589,-0.487003 -9.44411,-0.732778 -3.14821,-0.245775 -6.54078,0.226102 -9.81144,0.33688 -3.27065,0.110774 -7.63583,-4.920861 -11.45401,-7.383565 -3.81818,-2.462706 4.10109,-8.4446641 6.15136,-12.669268 2.05028,-4.2246043 6.63504,0.579074 9.95229,0.8663369 3.31725,0.287264 3.91142,-3.05224287 5.86686,-4.5806368 1.95544,-1.5283944 2.32473,0.2237135 3.48682,0.3332976 z" /><path
     style="fill:url(#linearGradient13248);fill-opacity:1;stroke-width:1.6527"
     d="m 44.190935,27.119051 c 1.227962,-0.05081 2.468201,0.457472 3.307336,1.355427 0.839135,0.897956 1.262355,2.169737 1.128597,3.391449 -0.114726,1.047877 -0.619108,2.029435 -1.312042,2.823821 -0.692934,0.794387 -1.567666,1.412992 -2.490186,1.923056 -3.940328,2.178619 -8.808994,2.391714 -13.096562,1.017187 -1.273471,-0.408255 -2.52971,-0.965036 -3.510613,-1.874008 -0.490451,-0.454486 -0.90616,-0.994566 -1.186328,-1.601695 -0.280169,-0.607129 -0.421978,-1.282461 -0.372696,-1.949298 0.07695,-1.041166 0.610842,-2.003363 1.29158,-2.794908 0.680738,-0.791546 1.508384,-1.440161 2.299413,-2.121499 1.277538,-1.100382 2.496688,-2.315128 4.013463,-3.051564 1.550516,-0.752818 3.362857,-0.952231 5.039963,-0.55455 1.677106,0.397682 3.206952,1.389607 4.25437,2.758457"
     id="path2415"
     inkscape:path-effect="#path-effect2417"
     inkscape:original-d="m 44.190935,27.119051 c 1.480489,1.583774 2.959133,3.166066 4.435933,4.746876 1.476799,1.580811 -2.532974,3.166064 -3.802228,4.746877 -1.269255,1.580811 -8.729197,0.679605 -13.096562,1.017187 -4.367367,0.337582 -3.377914,-3.615186 -5.069637,-5.425001 -1.691724,-1.809815 2.395839,-3.276124 3.590993,-4.916407 1.195153,-1.640282 2.677485,-2.032895 4.013463,-3.051564 1.335975,-1.018666 6.198068,1.470753 9.294333,2.203907" /><path
     style="fill:url(#linearGradient14943);fill-opacity:1;stroke-width:2.10879"
     d="m 151.10239,5.0792665 c 0.77693,-0.4227979 1.67659,-0.6167974 2.55872,-0.551748 0.88212,0.065049 1.7436,0.3889192 2.45011,0.921108 0.7065,0.5321888 1.25555,1.2708271 1.56152,2.1007378 0.30598,0.8299107 0.36781,1.7481786 0.17585,2.6116167 -0.29126,1.310117 -1.1489,2.44613 -2.20636,3.272575 -1.05746,0.826445 -2.30781,1.370207 -3.57611,1.80914 -6.34014,2.194198 -13.26031,1.922869 -19.91737,1.088938 -1.77827,-0.222764 -3.60379,-0.501454 -5.14645,-1.413644 -0.77132,-0.456095 -1.45883,-1.070732 -1.93276,-1.831232 -0.47393,-0.7605 -0.72503,-1.671685 -0.63075,-2.562797 0.0695,-0.6568214 0.32286,-1.2873132 0.68659,-1.8386209 0.36374,-0.5513077 0.83558,-1.025974 1.35486,-1.4341305 1.03856,-0.8163128 2.25572,-1.3660071 3.41978,-1.9904525 2.03561,-1.0919762 3.94835,-2.4358245 6.10371,-3.2668173 2.3378,-0.9013301 4.9184,-1.16363208 7.38974,-0.7511211 2.47134,0.4125109 4.82684,1.4987369 6.74516,3.1104888"
     id="path2415-0"
     inkscape:path-effect="#path-effect2417-9"
     inkscape:original-d="m 151.10239,5.0792665 c 2.25154,1.6954913 4.50027,3.3893963 6.7462,5.0817145 2.24593,1.692319 -3.85217,3.389393 -5.78247,5.081715 -1.93029,1.692319 -13.27545,0.727543 -19.91737,1.088938 -6.64194,0.361395 -5.13716,-3.870196 -7.70996,-5.807673 -2.57278,-1.9374772 3.64362,-3.5072176 5.46123,-5.2632039 1.8176,-1.7559853 4.07194,-2.1762927 6.10371,-3.2668173 2.03175,-1.09052132 9.42608,1.574498 14.1349,2.3593677" /><path
     style="fill:url(#linearGradient4538);fill-opacity:1;stroke-width:0.923825"
     d="m 163.56141,20.678783 c -2.90922,-0.244041 -5.86111,-0.08567 -8.70215,0.586332 -2.83853,0.671402 -5.5686,1.863685 -7.90064,3.615714 -1.99708,1.500383 -3.73046,3.476037 -4.46557,5.863317 -0.77241,2.508422 -0.33855,5.359457 1.14502,7.524592 1.51681,2.213642 4.01822,3.635132 6.64111,4.202044 3.08409,0.666596 6.2984,0.237054 9.38355,-0.424635 3.08514,-0.661689 6.13632,-1.555495 9.28027,-1.82297 3.45269,-0.293741 6.93343,0.178085 10.30518,0.97722 2.02636,0.480265 4.0301,1.079755 6.0921,1.371228 2.06199,0.291472 4.21782,0.260732 6.15962,-0.49173 2.29112,-0.887827 4.18428,-2.82899 4.86588,-5.189688 0.3408,-1.180349 0.38245,-2.448478 0.0992,-3.643942 -0.28326,-1.195463 -0.89306,-2.314689 -1.75902,-3.186172 -0.97947,-0.985711 -2.25657,-1.63505 -3.583,-2.049224 -1.32644,-0.414175 -2.71051,-0.606517 -4.08863,-0.784714 -3.09751,-0.400522 -6.2407,-0.746878 -9.16016,-1.856716 -1.88718,-0.717415 -3.64258,-1.740397 -5.4961,-2.540772 -2.78933,-1.204471 -5.78901,-1.895909 -8.81665,-2.149884 z"
     id="path2419"
     inkscape:path-effect="#path-effect2421"
     inkscape:original-d="m 163.56141,20.678783 c -2.93988,-0.717481 -5.80043,0.391741 -8.70215,0.586332 -2.90172,0.19459 -5.26609,2.411329 -7.90064,3.615714 -2.63454,1.204384 -2.97605,3.909731 -4.46557,5.863317 -1.48953,1.953586 0.76434,5.017248 1.14502,7.524592 0.38067,2.507343 4.42841,2.802216 6.64111,4.202044 2.21271,1.399828 12.44355,-1.49755 18.66382,-2.247605 6.22028,-0.750055 6.87112,0.652333 10.30518,0.97722 3.43406,0.324886 8.16881,0.587185 12.25172,0.879498 4.0829,0.292312 2.13837,-8.012349 3.20605,-12.019802 1.06769,-4.007454 -5.11342,-1.888438 -7.67163,-2.833938 -2.55821,-0.945498 -6.10577,-1.236957 -9.16016,-1.856716 -3.05439,-0.61976 -3.66306,-1.692995 -5.4961,-2.540772 -1.83303,-0.847777 -5.87676,-1.432403 -8.81665,-2.149884 z" /><path
     style="fill:url(#linearGradient10825);fill-opacity:1;stroke-width:1.52931"
     d="m 54.867796,18.318655 c -0.07558,1.615343 0.554693,3.189785 1.39519,4.571309 1.898391,3.120385 4.887979,5.486064 8.196807,7.032785 6.297038,2.943569 13.862789,2.963457 20.230392,0.17582 3.122421,-1.366947 6.042534,-3.391483 9.417584,-3.868032 1.819412,-0.256897 3.668663,-0.04426 5.493547,0.17034 1.824884,0.214598 3.673244,0.430939 5.493664,0.181299 2.56831,-0.3522 4.99302,-1.661158 6.70179,-3.610611 1.70878,-1.949454 2.68838,-4.522182 2.7158,-7.114385 0.0215,-2.028708 -0.53109,-4.059172 -1.5696,-5.802048 -1.03291,-1.7334796 -2.55774,-3.1881748 -4.38684,-4.0403745 -1.8291,-0.8521997 -3.96115,-1.0804942 -5.90276,-0.530936 -1.82022,0.5152003 -3.383514,1.6600032 -4.956861,2.710341 C 96.123162,9.2445002 94.423058,10.245917 92.538182,10.406771 90.543389,10.577005 88.587735,9.7795206 86.859629,8.7686654 85.131523,7.7578102 83.534271,6.5175913 81.725376,5.6596415 78.55259,4.1548048 74.84107,3.9231146 71.435791,4.7805435 67.365784,5.8053471 63.828001,8.2694853 60.448588,10.75841 c -1.30618,0.961997 -2.616169,1.946105 -3.667701,3.181348 -1.051531,1.235243 -1.837277,2.758466 -1.913091,4.378897 z"
     id="path2423"
     inkscape:path-effect="#path-effect2425"
     inkscape:original-d="m 54.867796,18.318655 c -1.861798,2.518545 0.931645,3.049075 1.39519,4.571309 0.463545,1.522235 5.466056,4.690059 8.196807,7.032785 2.730736,2.342726 13.488451,0.118741 20.230392,0.17582 6.74194,0.05707 6.279917,-2.577153 9.417584,-3.868032 3.137683,-1.290879 7.326341,0.235961 10.987211,0.351639 3.66087,0.115686 6.27991,-7.148462 9.41759,-10.724996 3.13767,-3.576535 -1.04487,-3.866497 -1.5696,-5.802048 -0.52473,-1.9355513 -6.85822,-3.0460043 -10.2896,-4.5713105 -3.431387,-1.525304 -6.741941,3.2835027 -10.115188,4.9229495 -3.373263,1.639447 -7.207009,-3.1632173 -10.812806,-4.7471295 -3.605781,-1.583912 -6.8582,-0.584529 -10.289585,-0.879098 -3.4314,-0.294567 -7.323284,3.9867807 -10.987203,5.9778665 -3.663919,1.991087 -3.71901,5.041698 -5.580792,7.560245 z" /></svg>
